<!-- Created with Inkscape (http://www.inkscape.org/) --><svg xmlns:dc="http://purl.org/dc/elements/1.1/" xmlns:cc="http://creativecommons.org/ns#" xmlns:rdf="http://www.w3.org/1999/02/22-rdf-syntax-ns#" xmlns:svg="http://www.w3.org/2000/svg" xmlns="http://www.w3.org/2000/svg" xmlns:xlink="http://www.w3.org/1999/xlink" xmlns:sodipodi="http://sodipodi.sourceforge.net/DTD/sodipodi-0.dtd" xmlns:inkscape="http://www.inkscape.org/namespaces/inkscape" sodipodi:docname="use.svg" inkscape:version="0.91 r13725" version="1.1" id="svg3057" height="1052.3622047" width="744.09448819">
  <defs id="defs3059"/>
  <sodipodi:namedview inkscape:window-maximized="0" inkscape:window-y="31" inkscape:window-x="37" inkscape:window-height="962" inkscape:window-width="1254" showgrid="false" inkscape:current-layer="svg3057" inkscape:document-units="px" inkscape:cy="850.19879" inkscape:cx="77.47264" inkscape:zoom="0.7" inkscape:pageshadow="2" inkscape:pageopacity="0.0" borderopacity="1.0" bordercolor="#666666" pagecolor="#ffffff" id="base"/>
  <metadata id="metadata3062">
    <rdf:RDF>
      <cc:Work rdf:about="">
        <dc:format>image/svg+xml</dc:format>
        <dc:type rdf:resource="http://purl.org/dc/dcmitype/StillImage"/>
        <dc:title/>
      </cc:Work>
    </rdf:RDF>
  </metadata>
  <g inkscape:label="Layer 1" inkscape:groupmode="layer" id="layer1">
    <path sodipodi:type="arc" style="fill:#0000ff;fill-opacity:1;stroke:#000000;stroke-width:2;stroke-linejoin:miter;stroke-miterlimit:4;stroke-opacity:1;stroke-dasharray:none" id="blue" sodipodi:cx="-156.06857" sodipodi:cy="292.22238" sodipodi:rx="18.687822" sodipodi:ry="18.687822" d="m -137.38075,292.22238 a 18.687822,18.687822 0 1 1 -37.37565,0 18.687822,18.687822 0 1 1 37.37565,0 z" inkscape:label="#path3078"/>
    <path sodipodi:type="arc" style="fill:#16f416;fill-opacity:1;stroke:#000000;stroke-width:2;stroke-linejoin:miter;stroke-miterlimit:4;stroke-opacity:1;stroke-dasharray:none" id="green" sodipodi:cx="-141.92644" sodipodi:cy="386.16656" sodipodi:rx="18.687822" sodipodi:ry="18.687822" d="m -123.23862,386.16656 a 18.687822,18.687822 0 1 1 -37.37564,0 18.687822,18.687822 0 1 1 37.37564,0 z" transform="translate(21.213203,-7.0710681)" inkscape:label="#path3876"/>
    <g id="g3893">
      <rect inkscape:label="#rect3076" y="95.219322" x="-214.28572" height="105.71429" width="105.71429" id="red" style="fill:#f72a02;fill-opacity:1;stroke:#000000;stroke-width:2;stroke-linejoin:miter;stroke-miterlimit:4;stroke-opacity:1;stroke-dasharray:none"/>
      <use height="1052.3622" width="744.09448" transform="translate(-5.0507628,-141.42136)" id="use3891" xlink:href="#blue" y="0" x="0"/>
    </g>
    <rect style="color:#000000;clip-rule:nonzero;display:inline;overflow:visible;visibility:visible;opacity:1;isolation:auto;mix-blend-mode:normal;color-interpolation:sRGB;color-interpolation-filters:linearRGB;solid-color:#000000;solid-opacity:1;fill:none;fill-opacity:1;fill-rule:nonzero;stroke:#5dc568;stroke-width:9.60000038;stroke-linecap:butt;stroke-linejoin:miter;stroke-miterlimit:4;stroke-dasharray:none;stroke-dashoffset:0;stroke-opacity:0.50892861;marker:none;color-rendering:auto;image-rendering:auto;shape-rendering:auto;text-rendering:auto;enable-background:accumulate" id="white" width="26.263968" height="32.324879" x="-97.984795" y="276.56503"/>
    <path style="fill:none;fill-rule:evenodd;stroke:#000000;stroke-width:1px;stroke-linecap:butt;stroke-linejoin:miter;stroke-opacity:1" d="m -199.44574,346.2457 c -0.6858,-1.10468 -1.28603,-2.27258 -2.0574,-3.31402 -0.17249,-0.23287 -0.48612,-0.29878 -0.72918,-0.44816 -0.24305,-0.14939 -0.45603,-0.52183 -0.72917,-0.44816 -0.27314,0.0737 -0.1565,0.68702 -0.42964,0.7607 -0.0743,0.02 -3.5868,-0.28222 -3.77599,-0.27124 -0.39834,0.0231 -0.77254,0.20835 -1.15881,0.31253 -0.38628,0.10418 -0.79962,0.13135 -1.15881,0.31254 -0.56794,0.28646 -1.02054,0.78676 -1.58846,1.07323 -0.35919,0.18118 -0.82395,0.0863 -1.15883,0.31253 -0.23678,0.16 -0.21691,0.5674 -0.42963,0.7607 -0.95135,0.86452 -2.22558,1.28195 -3.17693,2.14647 -1.20852,1.09823 -0.81586,3.9794 -1.11952,5.46049 -0.64232,3.133 -1.60968,3.48224 -0.81998,6.66934 0.25456,1.02733 0.88549,1.91059 1.32824,2.86586 1.87739,4.05077 0.77532,1.97526 3.38564,6.1799 0.6858,1.10467 1.26451,2.29031 2.0574,3.31402 0.5136,0.6631 3.16886,2.8103 3.51576,4.21034 0.0706,0.28492 -0.50024,0.47576 -0.42965,0.76069 0.0706,0.28493 0.65857,0.16323 0.72918,0.44816 0.007,0.0301 -1.98682,3.5177 -2.14822,3.80348 -1.14572,2.02852 -2.29143,4.05704 -3.43714,6.08556 -0.28643,0.50714 -0.46352,1.10187 -0.85929,1.52139 -0.28294,0.29992 -1.95797,0.92362 -2.01811,1.83392 -0.0275,0.41523 0.19968,0.80592 0.29954,1.20886 0.19968,0.80591 0.51062,1.59044 0.59905,2.41771 0.0699,0.65401 -0.28798,1.33242 -0.13011,1.96954 0.15787,0.63713 0.61437,1.16083 1.0287,1.65702 2.01701,2.4155 3.27405,3.35616 6.13292,4.79412 1.79684,0.90376 3.57258,1.99643 5.53385,2.37641 1.38683,0.26868 2.8136,-0.25163 4.20563,-0.48946 1.57489,-0.26908 3.09018,-0.83344 4.63526,-1.25015 0.77254,-0.20837 1.59927,-0.26271 2.31763,-0.62508 1.13588,-0.57294 2.08918,-1.47963 3.17693,-2.14645 0.0601,-0.0369 8.6559,-4.90642 8.67147,-4.91802 0.94661,-0.70521 1.60466,-1.75858 2.44775,-2.59461 0.64661,-0.64123 1.44502,-1.12067 2.01809,-1.83394 0.54368,-0.67667 0.8593,-1.52139 1.28894,-2.28209 1.58169,-2.80043 2.95103,-5.55276 2.10891,-8.95143 -0.25454,-1.02732 -1.07368,-1.83852 -1.32823,-2.86586 -0.25455,-1.02733 -0.0252,-2.12802 -0.16941,-3.17841 -0.47485,-3.45782 -0.38833,-1.40044 -1.62776,-4.0747 -0.17366,-0.37471 -0.0827,-0.85953 -0.29953,-1.20886 -0.3245,-0.52268 -3.32138,-1.71812 -3.64587,-2.2408 -0.21687,-0.34931 -0.0827,-0.85952 -0.29953,-1.20884 -0.30671,-0.49403 -1.21275,-0.36641 -1.45834,-0.89632 -0.34732,-0.74939 -0.29213,-1.64937 -0.59907,-2.41771 -0.3429,-0.55233 -0.6858,-1.10467 -1.0287,-1.657 -0.24305,-0.1494 -0.57583,-0.20116 -0.72917,-0.44817 -0.21687,-0.34932 -0.12587,-0.83416 -0.29954,-1.20884 -0.27457,-0.59246 -0.87083,-1.01989 -1.0287,-1.65702 -1.16898,-4.71783 0.39953,-0.30479 0.55975,-2.73024 0.0275,-0.41522 -0.38296,-0.80186 -0.29953,-1.20886 0.11802,-0.57559 0.74129,-0.9458 0.8593,-1.52139 0.0835,-0.407 -0.32695,-0.79364 -0.29953,-1.20886 0.0194,-0.29359 0.41024,-0.46709 0.42964,-0.76068 0.0275,-0.41522 -0.19968,-0.80591 -0.29953,-1.20885 -0.0999,-0.40296 -0.0827,-0.85954 -0.29954,-1.20887 -0.15335,-0.247 -0.65855,-0.16322 -0.72916,-0.44815 -0.0706,-0.28493 0.50024,-0.47577 0.42964,-0.76069 -0.0422,-0.17049 -1.99388,-1.33056 -2.18752,-1.34448 -1.88734,-0.13557 -0.98705,1.77841 -2.74727,1.38577 -0.55175,-0.12307 -0.9066,-0.77325 -1.45835,-0.89632 -0.39015,-0.0871 -0.76047,0.28941 -1.15882,0.31254 -0.62984,0.0366 -1.27112,0.002 -1.88798,-0.13562 -0.55175,-0.12307 -0.91209,-1.04366 -1.45835,-0.89632 -0.24011,0.0648 -1.61766,3.05003 -1.71857,3.04278 -1.16044,-0.0834 -2.2309,-0.68795 -3.34635,-1.03193 z" id="path" inkscape:connector-curvature="0"/>
  </g>
<svg:g inkscape:label="Countersheet  1" id="cs_layer_1" inkscape:groupmode="layer"><svg:g transform="translate(10.000000,10.000000)"><svg:g id="g3893" transform="translate(215.285720,-94.219322)">
      <svg:rect inkscape:label="#rect3076" y="95.219322" x="-214.28572" height="105.71429" width="105.71429" id="red" style="fill:#f72a02;fill-opacity:1;stroke:#000000;stroke-width:2;stroke-linejoin:miter;stroke-miterlimit:4;stroke-opacity:1;stroke-dasharray:none"/>
      <svg:use height="1052.3622" width="744.09448" transform="matrix(1.000000,0.000000,0.000000,1.000000,-5.050763,-141.421360)" id="use3891" xlink:href="#blue" y="0" x="0"/>
    </svg:g>
    </svg:g><svg:g transform="translate(117.714290,10.000000)"><svg:g id="g3893" transform="translate(215.285720,-94.219322)">
      <svg:rect inkscape:label="#rect3076" y="95.219322" x="-214.28572" height="105.71429" width="105.71429" id="red" style="fill:#f72a02;fill-opacity:1;stroke:#000000;stroke-width:2;stroke-linejoin:miter;stroke-miterlimit:4;stroke-opacity:1;stroke-dasharray:none"/>
      <svg:use height="1052.3622" width="744.09448" transform="matrix(1.000000,0.000000,0.000000,1.000000,-40.406103,-228.294470)" id="use3891" xlink:href="#green" y="0" x="0"/>
    </svg:g>
    </svg:g><svg:g transform="translate(225.428580,10.000000)"><svg:g id="g3893" transform="translate(215.285720,-94.219322)">
      <svg:rect inkscape:label="#rect3076" y="95.219322" x="-214.28572" height="105.71429" width="105.71429" id="red" style="fill:#f72a02;fill-opacity:1;stroke:#000000;stroke-width:2;stroke-linejoin:miter;stroke-miterlimit:4;stroke-opacity:1;stroke-dasharray:none"/>
      <svg:use height="1052.3622" width="744.09448" transform="matrix(1.000000,0.000000,0.000000,1.000000,-76.266535,-141.926447)" id="use3891" xlink:href="#white" y="0" x="0"/>
    </svg:g>
    </svg:g><svg:g transform="translate(333.142870,10.000000)"><svg:g id="g3893" transform="translate(215.285720,-94.219322)">
      <svg:rect inkscape:label="#rect3076" y="95.219322" x="-214.28572" height="105.71429" width="105.71429" id="red" style="fill:#f72a02;fill-opacity:1;stroke:#000000;stroke-width:2;stroke-linejoin:miter;stroke-miterlimit:4;stroke-opacity:1;stroke-dasharray:none"/>
      <svg:use height="1052.3622" width="744.09448" transform="matrix(1.000000,0.000000,0.000000,1.000000,33.448106,-222.761998)" id="use3891" xlink:href="#path" y="0" x="0"/>
    </svg:g>
    </svg:g><line x1="10.0" y1="0.0" x2="10.0" y2="9.0" style="stroke:#838383"/><line x1="10.0" y1="1042.3622047" x2="10.0" y2="1052.3622047" style="stroke:#838383"/><line x1="333.14287" y1="0.0" x2="333.14287" y2="9.0" style="stroke:#838383"/><line x1="333.14287" y1="1042.3622047" x2="333.14287" y2="1052.3622047" style="stroke:#838383"/><line x1="440.85716" y1="0.0" x2="440.85716" y2="9.0" style="stroke:#838383"/><line x1="440.85716" y1="1042.3622047" x2="440.85716" y2="1052.3622047" style="stroke:#838383"/><line x1="117.71429" y1="0.0" x2="117.71429" y2="9.0" style="stroke:#838383"/><line x1="117.71429" y1="1042.3622047" x2="117.71429" y2="1052.3622047" style="stroke:#838383"/><line x1="225.42858" y1="0.0" x2="225.42858" y2="9.0" style="stroke:#838383"/><line x1="225.42858" y1="1042.3622047" x2="225.42858" y2="1052.3622047" style="stroke:#838383"/><line x1="0.0" y1="10.0" x2="9.0" y2="10.0" style="stroke:#838383"/><line x1="734.09448819" y1="10.0" x2="744.09448819" y2="10.0" style="stroke:#838383"/><line x1="0.0" y1="116.71429" x2="9.0" y2="116.71429" style="stroke:#838383"/><line x1="734.09448819" y1="116.71429" x2="744.09448819" y2="116.71429" style="stroke:#838383"/></svg:g></svg>