<?xml version="1.0" encoding="UTF-8" standalone="no"?>
<!-- Created with Inkscape (http://www.inkscape.org/) -->

<svg
   xmlns:dc="http://purl.org/dc/elements/1.1/"
   xmlns:cc="http://creativecommons.org/ns#"
   xmlns:rdf="http://www.w3.org/1999/02/22-rdf-syntax-ns#"
   xmlns:svg="http://www.w3.org/2000/svg"
   xmlns="http://www.w3.org/2000/svg"
   xmlns:sodipodi="http://sodipodi.sourceforge.net/DTD/sodipodi-0.dtd"
   xmlns:inkscape="http://www.inkscape.org/namespaces/inkscape"
   width="8.5in"
   height="11in"
   viewBox="0 0 765 990"
   id="svg2"
   version="1.1"
   inkscape:version="0.92.1 r15371"
   sodipodi:docname="cards.svg">
  <sodipodi:namedview
     id="base"
     pagecolor="#ffffff"
     bordercolor="#666666"
     borderopacity="1.0"
     inkscape:pageopacity="0.0"
     inkscape:pageshadow="2"
     inkscape:zoom="0.5190175"
     inkscape:cx="-535.69718"
     inkscape:cy="759.74767"
     inkscape:document-units="px"
     inkscape:current-layer="layer1"
     showgrid="false"
     inkscape:window-width="1366"
     inkscape:window-height="720"
     inkscape:window-x="0"
     inkscape:window-y="0"
     inkscape:window-maximized="1"
     units="in"
     inkscape:snap-global="false" />
  <defs
     id="defs4" />
  <metadata
     id="metadata7">
    <rdf:RDF>
      <cc:Work
         rdf:about="">
        <dc:format>image/svg+xml</dc:format>
        <dc:type
           rdf:resource="http://purl.org/dc/dcmitype/StillImage" />
        <dc:title />
      </cc:Work>
    </rdf:RDF>
  </metadata>
  <g
     transform="translate(0,-62.362205)"
     id="layer1"
     inkscape:groupmode="layer"
     inkscape:label="templates">
    <g
       id="g7702">
      <rect
         style="opacity:1;vector-effect:none;fill:#dbcaa3;fill-opacity:1;stroke:none;stroke-width:2.17679334px;stroke-linecap:butt;stroke-linejoin:miter;stroke-miterlimit:4;stroke-dasharray:none;stroke-dashoffset:0;stroke-opacity:1"
         id="card"
         width="225"
         height="315"
         x="-436.81787"
         y="-245.478"
         inkscape:label="#rect7520" />
      <path
         style="fill:#faf2e1;stroke:none;stroke-width:2.66223598"
         inkscape:connector-curvature="0"
         id="path298"
         d="m -420.95536,-239.17799 h 193.16249 q 11.475,0 11.475,15.90748 V 47.31452 q 0,15.90749 -11.475,15.90749 h -193.16249 q -11.36251,0 -11.36251,-15.90749 v -270.58503 q 0,-15.90748 11.36251,-15.90748 m 0,6.3 q -6.86251,0 -6.86251,9.60748 v 192.78002 l 3.93751,5.51249 -3.93751,5.355 v 15.59252 l 6.3,8.82 -6.3,8.82 v 33.705 q 0,9.60749 6.86251,9.60749 h 19.8 l 4.95,-6.93 4.95,6.93 h 163.46249 q 6.975,0 6.975,-9.60749 v -17.955 l -9.225,-12.915 9.225,-13.07252 v -173.7225 l -6.975,-9.765 6.975,-9.92249 v -33.23252 q 0,-9.60748 -6.975,-9.60748 h -86.73749 l -6.41251,9.135 -6.525,-9.135 h -93.48749" />
      <path
         style="fill:#e0e0e0;stroke:none;stroke-width:2.66223598;fill-opacity:1"
         inkscape:connector-curvature="0"
         id="path300"
         d="m -420.95536,-232.87799 h 93.48749 l 6.525,9.135 6.41251,-9.135 h 86.73749 q 6.975,0 6.975,9.60748 v 33.23252 l -6.975,9.92249 6.975,9.765 V 3.372 l -9.225,13.07252 9.225,12.915 v 17.955 q 0,9.60749 -6.975,9.60749 h -163.46249 l -4.95,-6.93 -4.95,6.93 h -19.8 q -6.86251,0 -6.86251,-9.60749 v -33.705 l 6.3,-8.82 -6.3,-8.82 V -19.623 l 3.93751,-5.355 -3.93751,-5.51249 v -192.78002 q 0,-9.60748 6.86251,-9.60748" />
      <path
         style="fill:#dbcaa3;fill-opacity:1;stroke:none;stroke-width:2.66223598"
         inkscape:connector-curvature="0"
         id="ddddd"
         d="m -420.95536,-245.478 h 193.16249 q 7.98751,0 11.81251,5.82749 4.16249,5.355 4.16249,16.38 V 47.31452 q 0,11.025 -4.16249,16.38 -3.825,5.82749 -11.81251,5.82749 h -193.16249 q -15.86251,0 -15.86251,-22.20749 v -270.58503 q 0,-22.20749 15.86251,-22.20749 m 0,6.30001 q -11.36251,0 -11.36251,15.90748 V 47.31452 q 0,15.90749 11.36251,15.90749 h 193.16249 q 11.475,0 11.475,-15.90749 v -270.58503 q 0,-15.90748 -11.475,-15.90748 h -193.16249"
         inkscape:label="#path302" />
      <flowRoot
         xml:space="preserve"
         id="text"
         style="font-style:normal;font-variant:normal;font-weight:normal;font-stretch:normal;font-size:17.5px;line-height:100%;font-family:Carlito;-inkscape-font-specification:'Carlito, Normal';font-variant-ligatures:normal;font-variant-caps:normal;font-variant-numeric:normal;font-feature-settings:normal;text-align:start;letter-spacing:0px;word-spacing:0px;writing-mode:lr-tb;text-anchor:start;fill:#000000;fill-opacity:1;stroke:none;stroke-width:1px;stroke-linecap:butt;stroke-linejoin:miter;stroke-opacity:1"
         inkscape:label="#flowRoot4142"
         transform="translate(53.50719,-217.5725)"><flowRegion
           style="font-style:normal;font-variant:normal;font-weight:normal;font-stretch:normal;font-size:17.5px;font-family:Carlito;-inkscape-font-specification:'Carlito, Normal';font-variant-ligatures:normal;font-variant-caps:normal;font-variant-numeric:normal;font-feature-settings:normal;text-align:start;writing-mode:lr-tb;text-anchor:start"
           id="flowRegion4144"><rect
             style="font-style:normal;font-variant:normal;font-weight:normal;font-stretch:normal;font-size:17.5px;font-family:Carlito;-inkscape-font-specification:'Carlito, Normal';font-variant-ligatures:normal;font-variant-caps:normal;font-variant-numeric:normal;font-feature-settings:normal;text-align:start;writing-mode:lr-tb;text-anchor:start"
             id="rect4146"
             width="198.70032"
             height="223.74785"
             x="-478.98862"
             y="47.780663" /></flowRegion><flowPara
           style="font-style:normal;font-variant:normal;font-weight:normal;font-stretch:normal;font-size:17.5px;line-height:1.25;font-family:Carlito;-inkscape-font-specification:'Carlito, Normal';font-variant-ligatures:normal;font-variant-caps:normal;font-variant-numeric:normal;font-feature-settings:normal;text-align:start;writing-mode:lr-tb;text-anchor:start"
           id="flowPara4148">Some text on the card here.</flowPara></flowRoot>      <text
         xml:space="preserve"
         style="font-style:normal;font-variant:normal;font-weight:bold;font-stretch:normal;font-size:25px;line-height:0%;font-family:Carlito;-inkscape-font-specification:'Carlito, Bold';font-variant-ligatures:normal;font-variant-caps:normal;font-variant-numeric:normal;font-feature-settings:normal;text-align:center;letter-spacing:0px;word-spacing:0px;writing-mode:lr-tb;text-anchor:middle;opacity:1;vector-effect:none;fill:#000000;fill-opacity:1;stroke:none;stroke-width:1px;stroke-linecap:butt;stroke-linejoin:miter;stroke-miterlimit:4;stroke-dasharray:none;stroke-dashoffset:0;stroke-opacity:1"
         x="-323.99438"
         y="-191.8299"
         id="title"
         inkscape:label="#text4138"><tspan
           style="font-style:normal;font-variant:normal;font-weight:bold;font-stretch:normal;font-size:25px;line-height:1.25;font-family:Carlito;-inkscape-font-specification:'Carlito, Bold';font-variant-ligatures:normal;font-variant-caps:normal;font-variant-numeric:normal;font-feature-settings:normal;text-align:center;writing-mode:lr-tb;text-anchor:middle;vector-effect:none;fill:#000000;fill-opacity:1;stroke:none;stroke-width:1px;stroke-linecap:butt;stroke-linejoin:miter;stroke-miterlimit:4;stroke-dasharray:none;stroke-dashoffset:0;stroke-opacity:1"
           sodipodi:role="line"
           id="tspan4140"
           x="-323.99438"
           y="-191.8299">TITLE</tspan></text>
      <g
         id="g7474"
         transform="matrix(2.0647642,0,0,2.0647642,204.84414,-358.26263)">
        <path
           d="m -244.77965,179.63517 v -0.46875 q 0,-6.79688 4.73438,-11.625 l 0.0469,-0.0469 q 4.82813,-4.73437 11.625,-4.73437 6.79688,0 11.57813,4.73437 v 0.0469 q 4.82812,4.82813 4.82812,11.625 v 0.46875 q -0.1875,6.51563 -4.82812,11.10938 -4.78125,4.82812 -11.57813,4.82812 -6.79687,0 -11.625,-4.82812 h -0.0469 q -4.54688,-4.59375 -4.73438,-11.10937 m 1.82813,-0.46875 q 0,6.04687 4.26562,10.3125 4.26563,4.21875 10.3125,4.21875 6,0 10.26563,-4.21875 l 0.0469,-0.0469 q 4.21875,-4.26563 4.21875,-10.26563 0,-6.04687 -4.21875,-10.3125 -4.26563,-4.26562 -10.3125,-4.26562 -6,0 -10.3125,4.26562 -4.26563,4.3125 -4.26563,10.3125"
           id="path452"
           inkscape:connector-curvature="0"
           style="fill:#886644;stroke:none;stroke-width:0.9375" />
        <path
           d="m -211.96715,179.63517 v 0.46875 0.46875 0.46875 0.46875 0.46875 q 0,6.79687 -4.82812,11.57812 -4.78125,4.82813 -11.57813,4.82813 -6.79687,0 -11.625,-4.82813 h -0.0469 q -4.73438,-4.78125 -4.73438,-11.57812 v -0.46875 -0.46875 -0.46875 -0.46875 -0.46875 q 0.1875,6.51562 4.73438,11.10937 h 0.0469 q 4.82813,4.82813 11.625,4.82813 6.79688,0 11.57813,-4.82813 4.64062,-4.59375 4.82812,-11.10937"
           id="path454"
           inkscape:connector-curvature="0"
           style="fill:#000000;fill-opacity:0.10196078;stroke:none;stroke-width:0.9375" />
        <path
           d="m -241.07652,179.16642 q 0,5.25 3.65625,8.95312 3.75,3.75 9.04687,3.75 5.25,0 8.95313,-3.75 3.75,-3.70312 3.75,-8.95312 0,-5.29688 -3.75,-9.04688 -3.70313,-3.65625 -8.95313,-3.65625 -5.29687,0 -9.04687,3.65625 -3.65625,3.75 -3.65625,9.04688 m -1.875,0 q 0,-6 4.26562,-10.3125 4.3125,-4.26563 10.3125,-4.26563 6.04688,0 10.3125,4.26563 4.21875,4.26562 4.21875,10.3125 0,6 -4.21875,10.26562 l -0.0469,0.0469 q -4.26562,4.21875 -10.26562,4.21875 -6.04688,0 -10.3125,-4.21875 -4.26563,-4.26562 -4.26563,-10.3125"
           id="path456"
           inkscape:connector-curvature="0"
           style="fill:#b7916a;stroke:none;stroke-width:0.9375" />
        <path
           d="m -241.07652,179.16642 q 0,-5.29688 3.65625,-9.04688 3.75,-3.65625 9.04687,-3.65625 5.25,0 8.95313,3.65625 3.75,3.75 3.75,9.04688 0,5.25 -3.75,8.95312 -3.70313,3.75 -8.95313,3.75 -5.29687,0 -9.04687,-3.75 -3.65625,-3.70312 -3.65625,-8.95312"
           id="path458"
           inkscape:connector-curvature="0"
           style="fill:#97714a;stroke:none;stroke-width:0.9375" />
      </g>
      <g
         id="g7468"
         transform="matrix(2.0647642,0,0,2.0647642,-87.532552,162.0524)">
        <path
           d="m -102.25637,-85.101809 -0.32813,-1.17187 q -0.23437,-0.70313 0.0937,-1.3125 0.28125,-0.60938 0.89063,-0.89063 l 1.3125,-0.0937 10.546866,2.8125 q 0.70313,0.14063 1.07813,0.79688 l 8.01562,12.60937 1.5,-1.453125 0.32813,-0.28125 q 0.42187,-0.28125 0.98437,-0.28125 0.5625,0 1.03125,0.28125 l 0.32813,0.28125 1.875,1.875 q 0.51562,0.515625 0.51562,1.3125 0,0.75 -0.51562,1.3125 l -0.0937,0.09375 -1.35938,1.40625 1.40625,1.40625 0.46875,0.46875 0.375,-0.04687 q 0.79688,0 1.35938,0.5625 l 1.21875,1.21875 q 0.51562,0.515625 0.51562,1.3125 0,0.796875 -0.51562,1.359375 l -0.0937,0.04687 -4.21875,4.265625 q -0.5625,0.515625 -1.35938,0.515625 -0.79687,0 -1.3125,-0.515625 l -1.21875,-1.21875 q -0.5625,-0.5625 -0.5625,-1.359375 l 0.0469,-0.375 -1.875,-1.875 -1.5,1.453125 q -0.5625,0.515625 -1.3125,0.515625 -0.79687,0 -1.3125,-0.515625 l -1.78125,-1.78125 -0.0937,-0.09375 q -0.5625,-0.5625 -0.5625,-1.359375 0,-0.65625 0.375,-1.125 l 0.1875,-0.1875 1.5,-1.546875 -12.60937,-7.96875 q -0.65625,-0.375 -0.79688,-1.078125 l -2.531246,-9.375 m 23.531256,17.296875 2.76562,-2.8125 -1.875,-1.875 -3.14062,3.140625 -9.28125,-14.625 -10.546876,-2.8125 2.859376,10.546875 14.625,9.234375 -3.1875,3.1875 1.875,1.875 2.8125,-2.765625 4.3125,4.3125 -0.60938,0.609375 1.21875,1.21875 4.3125,-4.3125 -1.21875,-1.21875 -0.60937,0.609375 -4.3125,-4.3125"
           id="path334"
           inkscape:connector-curvature="0"
           style="fill:#6b6b6b;stroke:none;stroke-width:0.9375" />
        <path
           d="m -78.725124,-67.804934 -3.09375,3.09375 -2.8125,2.765625 -1.875,-1.875 3.1875,-3.1875 1.17187,-1.125 1.17188,-1.21875 3.14062,-3.140625 1.875,1.875 -2.76562,2.8125 m 4.3125,4.3125 0.60937,-0.609375 1.21875,1.21875 -4.3125,4.3125 -1.21875,-1.21875 0.60938,-0.609375 3.09375,-3.09375"
           id="path336"
           inkscape:connector-curvature="0"
           style="fill:#a8a8a8;stroke:none;stroke-width:0.9375" />
        <path
           d="m -74.693874,-69.211184 0.0937,0.09375 q 0.51562,0.515625 0.51562,1.3125 0,0.75 -0.51562,1.3125 l -0.0469,0.09375 -1.40625,-1.40625 1.35937,-1.40625 m 3.375,7.734375 0.0937,0.09375 q 0.51563,0.515625 0.51563,1.3125 0,0.796875 -0.51563,1.359375 l -4.3125,4.3125 q -0.5625,0.515625 -1.35937,0.515625 -0.79688,0 -1.3125,-0.515625 l -1.21875,-1.21875 q -0.5625,-0.5625 -0.5625,-1.359375 l 0.0469,-0.375 -1.875,-1.875 -1.5,1.453125 q -0.5625,0.515625 -1.3125,0.515625 -0.79688,0 -1.3125,-0.515625 l -1.875,-1.875 q -0.5625,-0.5625 -0.5625,-1.359375 0,-0.796875 0.5625,-1.3125 l 0.0937,-0.04687 1.78125,1.78125 q 0.51562,0.515625 1.3125,0.515625 0.75,0 1.3125,-0.515625 l 1.5,-1.453125 1.875,1.875 -0.0469,0.375 q 0,0.796875 0.5625,1.359375 l 1.21875,1.21875 q 0.51562,0.515625 1.3125,0.515625 0.79687,0 1.35937,-0.515625 l 4.21875,-4.265625 m -16.6875,-3.468755 -10.92188,-6.890625 q -0.65625,-0.375 -0.79687,-1.078125 l -2.859376,-10.54687 q -0.23437,-0.70313 0.0937,-1.3125 l 0.23438,-0.32813 2.531246,9.375 q 0.14062,0.703125 0.79687,1.078125 l 12.60938,7.96875 -1.5,1.546875 -0.1875,0.1875"
           id="path338"
           inkscape:connector-curvature="0"
           style="fill:#000000;fill-opacity:0.10196078;stroke:none;stroke-width:0.9375" />
        <path
           d="m -83.318874,-67.008059 -14.625,-9.234375 -2.859376,-10.546875 18.656246,18.65625 -1.17187,1.125"
           id="path340"
           inkscape:connector-curvature="0"
           style="fill:#e0e0e0;stroke:none;stroke-width:0.9375" />
        <path
           d="m -78.725124,-67.804934 4.3125,4.3125 -3.09375,3.09375 -4.3125,-4.3125 3.09375,-3.09375"
           id="path342"
           inkscape:connector-curvature="0"
           style="fill:#666666;stroke:none;stroke-width:0.9375" />
        <path
           d="m -100.80325,-86.789309 10.546876,2.8125 9.28125,14.625 -1.17188,1.21875 -18.656246,-18.65625"
           id="path344"
           inkscape:connector-curvature="0"
           style="fill:#ffffff;stroke:none;stroke-width:0.9375" />
      </g>
    </g>
    <g
       id="g7678">
      <rect
         inkscape:label="#rect7520"
         y="234.99713"
         x="-828.78442"
         height="315"
         width="225"
         id="rcard"
         style="opacity:1;vector-effect:none;fill:#dbcaa3;fill-opacity:1;stroke:none;stroke-width:2.17679334px;stroke-linecap:butt;stroke-linejoin:miter;stroke-miterlimit:4;stroke-dasharray:none;stroke-dashoffset:0;stroke-opacity:1" />
      <path
         d="m -812.92192,241.29714 h 193.16249 q 11.475,0 11.475,15.90748 v 270.58503 q 0,15.90749 -11.475,15.90749 h -193.16249 q -11.36251,0 -11.36251,-15.90749 V 257.20462 q 0,-15.90748 11.36251,-15.90748 m 0,6.3 q -6.86251,0 -6.86251,9.60748 v 192.78002 l 3.93751,5.51249 -3.93751,5.355 v 15.59252 l 6.3,8.82 -6.3,8.82 v 33.705 q 0,9.60749 6.86251,9.60749 h 19.8 l 4.95,-6.93 4.95,6.93 h 163.46249 q 6.975,0 6.975,-9.60749 v -17.955 l -9.225,-12.915 9.225,-13.07252 v -173.7225 l -6.975,-9.765 6.975,-9.92249 v -33.23252 q 0,-9.60748 -6.975,-9.60748 h -86.73749 l -6.41251,9.135 -6.525,-9.135 h -93.48749"
         id="path7614"
         inkscape:connector-curvature="0"
         style="fill:#faf2e1;stroke:none;stroke-width:2.66223598" />
      <path
         d="m -812.92192,247.59714 h 93.48749 l 6.525,9.135 6.41251,-9.135 h 86.73749 q 6.975,0 6.975,9.60748 v 33.23252 l -6.975,9.92249 6.975,9.765 v 173.7225 l -9.225,13.07252 9.225,12.915 v 17.955 q 0,9.60749 -6.975,9.60749 h -163.46249 l -4.95,-6.93 -4.95,6.93 h -19.8 q -6.86251,0 -6.86251,-9.60749 v -33.705 l 6.3,-8.82 -6.3,-8.82 v -15.59252 l 3.93751,-5.355 -3.93751,-5.51249 V 257.20462 q 0,-9.60748 6.86251,-9.60748"
         id="path7616"
         inkscape:connector-curvature="0"
         style="fill:#e2d2c3;stroke:none;stroke-width:2.66223598;fill-opacity:1" />
      <path
         inkscape:label="#path302"
         d="m -812.92192,234.99713 h 193.16249 q 7.98751,0 11.81251,5.82749 4.16249,5.355 4.16249,16.38 v 270.58503 q 0,11.025 -4.16249,16.38 -3.825,5.82749 -11.81251,5.82749 h -193.16249 q -15.86251,0 -15.86251,-22.20749 V 257.20462 q 0,-22.20749 15.86251,-22.20749 m 0,6.30001 q -11.36251,0 -11.36251,15.90748 v 270.58503 q 0,15.90749 11.36251,15.90749 h 193.16249 q 11.475,0 11.475,-15.90749 V 257.20462 q 0,-15.90748 -11.475,-15.90748 h -193.16249"
         id="path7618"
         inkscape:connector-curvature="0"
         style="fill:#dbcaa3;fill-opacity:1;stroke:none;stroke-width:2.66223598" />
      <flowRoot
         inkscape:label="#flowRoot4142"
         style="font-style:normal;font-variant:normal;font-weight:normal;font-stretch:normal;font-size:17.5px;line-height:100%;font-family:Carlito;-inkscape-font-specification:'Carlito, Normal';font-variant-ligatures:normal;font-variant-caps:normal;font-variant-numeric:normal;font-feature-settings:normal;text-align:start;letter-spacing:0px;word-spacing:0px;writing-mode:lr-tb;text-anchor:start;fill:#000000;fill-opacity:1;stroke:none;stroke-width:1px;stroke-linecap:butt;stroke-linejoin:miter;stroke-opacity:1"
         id="rtext"
         xml:space="preserve"
         transform="translate(-334.21709,268.40358)"><flowRegion
           style="font-style:normal;font-variant:normal;font-weight:normal;font-stretch:normal;font-size:17.5px;font-family:Carlito;-inkscape-font-specification:'Carlito, Normal';font-variant-ligatures:normal;font-variant-caps:normal;font-variant-numeric:normal;font-feature-settings:normal;text-align:start;writing-mode:lr-tb;text-anchor:start"
           id="flowRegion4159"><rect
             style="font-style:normal;font-variant:normal;font-weight:normal;font-stretch:normal;font-size:17.5px;line-height:125%;font-family:Carlito;-inkscape-font-specification:'Carlito, Normal';font-variant-ligatures:normal;font-variant-caps:normal;font-variant-numeric:normal;font-feature-settings:normal;text-align:start;writing-mode:lr-tb;text-anchor:start"
             y="47.780663"
             x="-478.98862"
             height="199.36284"
             width="194.18457"
             id="rect4161" /></flowRegion><flowPara
           style="font-style:normal;font-variant:normal;font-weight:normal;font-stretch:normal;font-size:17.5px;line-height:1.25;font-family:Carlito;-inkscape-font-specification:'Carlito, Normal';font-variant-ligatures:normal;font-variant-caps:normal;font-variant-numeric:normal;font-feature-settings:normal;text-align:start;writing-mode:lr-tb;text-anchor:start"
           id="flowPara4163">Some text on the card here. Some parts are replaced from CSV. For instance %HERE%. Same %HERE%. And %there%.</flowPara></flowRoot>      <text
         inkscape:label="#text4138"
         id="rtitle"
         y="286.01788"
         x="-718.36139"
         style="font-style:normal;font-variant:normal;font-weight:bold;font-stretch:normal;font-size:25px;line-height:0%;font-family:Carlito;-inkscape-font-specification:'Carlito, Bold';font-variant-ligatures:normal;font-variant-caps:normal;font-variant-numeric:normal;font-feature-settings:normal;text-align:center;letter-spacing:0px;word-spacing:0px;writing-mode:lr-tb;text-anchor:middle;fill:#000000;fill-opacity:1;stroke:none;stroke-width:1px;stroke-linecap:butt;stroke-linejoin:miter;stroke-opacity:1"
         xml:space="preserve"><tspan
           style="font-style:normal;font-variant:normal;font-weight:bold;font-stretch:normal;font-size:25px;line-height:1.25;font-family:Carlito;-inkscape-font-specification:'Carlito, Bold';font-variant-ligatures:normal;font-variant-caps:normal;font-variant-numeric:normal;font-feature-settings:normal;text-align:center;writing-mode:lr-tb;text-anchor:middle"
           y="286.01788"
           x="-718.36139"
           id="tspan4155"
           sodipodi:role="line">REPLACE</tspan></text>
      <g
         transform="matrix(2.0647642,0,0,2.0647642,-243.32121,122.2125)"
         id="g7640">
        <path
           style="fill:#886644;stroke:none;stroke-width:0.9375"
           inkscape:connector-curvature="0"
           id="path7632"
           d="m -244.77965,179.63517 v -0.46875 q 0,-6.79688 4.73438,-11.625 l 0.0469,-0.0469 q 4.82813,-4.73437 11.625,-4.73437 6.79688,0 11.57813,4.73437 v 0.0469 q 4.82812,4.82813 4.82812,11.625 v 0.46875 q -0.1875,6.51563 -4.82812,11.10938 -4.78125,4.82812 -11.57813,4.82812 -6.79687,0 -11.625,-4.82812 h -0.0469 q -4.54688,-4.59375 -4.73438,-11.10937 m 1.82813,-0.46875 q 0,6.04687 4.26562,10.3125 4.26563,4.21875 10.3125,4.21875 6,0 10.26563,-4.21875 l 0.0469,-0.0469 q 4.21875,-4.26563 4.21875,-10.26563 0,-6.04687 -4.21875,-10.3125 -4.26563,-4.26562 -10.3125,-4.26562 -6,0 -10.3125,4.26562 -4.26563,4.3125 -4.26563,10.3125" />
        <path
           style="fill:#000000;fill-opacity:0.10196078;stroke:none;stroke-width:0.9375"
           inkscape:connector-curvature="0"
           id="path7634"
           d="m -211.96715,179.63517 v 0.46875 0.46875 0.46875 0.46875 0.46875 q 0,6.79687 -4.82812,11.57812 -4.78125,4.82813 -11.57813,4.82813 -6.79687,0 -11.625,-4.82813 h -0.0469 q -4.73438,-4.78125 -4.73438,-11.57812 v -0.46875 -0.46875 -0.46875 -0.46875 -0.46875 q 0.1875,6.51562 4.73438,11.10937 h 0.0469 q 4.82813,4.82813 11.625,4.82813 6.79688,0 11.57813,-4.82813 4.64062,-4.59375 4.82812,-11.10937" />
        <path
           style="fill:#b7916a;stroke:none;stroke-width:0.9375"
           inkscape:connector-curvature="0"
           id="path7636"
           d="m -241.07652,179.16642 q 0,5.25 3.65625,8.95312 3.75,3.75 9.04687,3.75 5.25,0 8.95313,-3.75 3.75,-3.70312 3.75,-8.95312 0,-5.29688 -3.75,-9.04688 -3.70313,-3.65625 -8.95313,-3.65625 -5.29687,0 -9.04687,3.65625 -3.65625,3.75 -3.65625,9.04688 m -1.875,0 q 0,-6 4.26562,-10.3125 4.3125,-4.26563 10.3125,-4.26563 6.04688,0 10.3125,4.26563 4.21875,4.26562 4.21875,10.3125 0,6 -4.21875,10.26562 l -0.0469,0.0469 q -4.26562,4.21875 -10.26562,4.21875 -6.04688,0 -10.3125,-4.21875 -4.26563,-4.26562 -4.26563,-10.3125" />
        <path
           style="fill:#97714a;stroke:none;stroke-width:0.9375"
           inkscape:connector-curvature="0"
           id="path7638"
           d="m -241.07652,179.16642 q 0,-5.29688 3.65625,-9.04688 3.75,-3.65625 9.04687,-3.65625 5.25,0 8.95313,3.65625 3.75,3.75 3.75,9.04688 0,5.25 -3.75,8.95312 -3.70313,3.75 -8.95313,3.75 -5.29687,0 -9.04687,-3.75 -3.65625,-3.70312 -3.65625,-8.95312" />
      </g>
      <g
         transform="matrix(1.8309623,-0.95437327,0.95437327,1.8309623,-487.99063,543.1343)"
         id="g7654">
        <path
           style="fill:#6b6b6b;stroke:none;stroke-width:0.9375"
           inkscape:connector-curvature="0"
           id="path7642"
           d="m -102.25637,-85.101809 -0.32813,-1.17187 q -0.23437,-0.70313 0.0937,-1.3125 0.28125,-0.60938 0.89063,-0.89063 l 1.3125,-0.0937 10.546866,2.8125 q 0.70313,0.14063 1.07813,0.79688 l 8.01562,12.60937 1.5,-1.453125 0.32813,-0.28125 q 0.42187,-0.28125 0.98437,-0.28125 0.5625,0 1.03125,0.28125 l 0.32813,0.28125 1.875,1.875 q 0.51562,0.515625 0.51562,1.3125 0,0.75 -0.51562,1.3125 l -0.0937,0.09375 -1.35938,1.40625 1.40625,1.40625 0.46875,0.46875 0.375,-0.04687 q 0.79688,0 1.35938,0.5625 l 1.21875,1.21875 q 0.51562,0.515625 0.51562,1.3125 0,0.796875 -0.51562,1.359375 l -0.0937,0.04687 -4.21875,4.265625 q -0.5625,0.515625 -1.35938,0.515625 -0.79687,0 -1.3125,-0.515625 l -1.21875,-1.21875 q -0.5625,-0.5625 -0.5625,-1.359375 l 0.0469,-0.375 -1.875,-1.875 -1.5,1.453125 q -0.5625,0.515625 -1.3125,0.515625 -0.79687,0 -1.3125,-0.515625 l -1.78125,-1.78125 -0.0937,-0.09375 q -0.5625,-0.5625 -0.5625,-1.359375 0,-0.65625 0.375,-1.125 l 0.1875,-0.1875 1.5,-1.546875 -12.60937,-7.96875 q -0.65625,-0.375 -0.79688,-1.078125 l -2.531246,-9.375 m 23.531256,17.296875 2.76562,-2.8125 -1.875,-1.875 -3.14062,3.140625 -9.28125,-14.625 -10.546876,-2.8125 2.859376,10.546875 14.625,9.234375 -3.1875,3.1875 1.875,1.875 2.8125,-2.765625 4.3125,4.3125 -0.60938,0.609375 1.21875,1.21875 4.3125,-4.3125 -1.21875,-1.21875 -0.60937,0.609375 -4.3125,-4.3125" />
        <path
           style="fill:#a8a8a8;stroke:none;stroke-width:0.9375"
           inkscape:connector-curvature="0"
           id="path7644"
           d="m -78.725124,-67.804934 -3.09375,3.09375 -2.8125,2.765625 -1.875,-1.875 3.1875,-3.1875 1.17187,-1.125 1.17188,-1.21875 3.14062,-3.140625 1.875,1.875 -2.76562,2.8125 m 4.3125,4.3125 0.60937,-0.609375 1.21875,1.21875 -4.3125,4.3125 -1.21875,-1.21875 0.60938,-0.609375 3.09375,-3.09375" />
        <path
           style="fill:#000000;fill-opacity:0.10196078;stroke:none;stroke-width:0.9375"
           inkscape:connector-curvature="0"
           id="path7646"
           d="m -74.693874,-69.211184 0.0937,0.09375 q 0.51562,0.515625 0.51562,1.3125 0,0.75 -0.51562,1.3125 l -0.0469,0.09375 -1.40625,-1.40625 1.35937,-1.40625 m 3.375,7.734375 0.0937,0.09375 q 0.51563,0.515625 0.51563,1.3125 0,0.796875 -0.51563,1.359375 l -4.3125,4.3125 q -0.5625,0.515625 -1.35937,0.515625 -0.79688,0 -1.3125,-0.515625 l -1.21875,-1.21875 q -0.5625,-0.5625 -0.5625,-1.359375 l 0.0469,-0.375 -1.875,-1.875 -1.5,1.453125 q -0.5625,0.515625 -1.3125,0.515625 -0.79688,0 -1.3125,-0.515625 l -1.875,-1.875 q -0.5625,-0.5625 -0.5625,-1.359375 0,-0.796875 0.5625,-1.3125 l 0.0937,-0.04687 1.78125,1.78125 q 0.51562,0.515625 1.3125,0.515625 0.75,0 1.3125,-0.515625 l 1.5,-1.453125 1.875,1.875 -0.0469,0.375 q 0,0.796875 0.5625,1.359375 l 1.21875,1.21875 q 0.51562,0.515625 1.3125,0.515625 0.79687,0 1.35937,-0.515625 l 4.21875,-4.265625 m -16.6875,-3.468755 -10.92188,-6.890625 q -0.65625,-0.375 -0.79687,-1.078125 l -2.859376,-10.54687 q -0.23437,-0.70313 0.0937,-1.3125 l 0.23438,-0.32813 2.531246,9.375 q 0.14062,0.703125 0.79687,1.078125 l 12.60938,7.96875 -1.5,1.546875 -0.1875,0.1875" />
        <path
           style="fill:#e0e0e0;stroke:none;stroke-width:0.9375"
           inkscape:connector-curvature="0"
           id="path7648"
           d="m -83.318874,-67.008059 -14.625,-9.234375 -2.859376,-10.546875 18.656246,18.65625 -1.17187,1.125" />
        <path
           style="fill:#666666;stroke:none;stroke-width:0.9375"
           inkscape:connector-curvature="0"
           id="path7650"
           d="m -78.725124,-67.804934 4.3125,4.3125 -3.09375,3.09375 -4.3125,-4.3125 3.09375,-3.09375" />
        <path
           style="fill:#ffffff;stroke:none;stroke-width:0.9375"
           inkscape:connector-curvature="0"
           id="path7652"
           d="m -100.80325,-86.789309 10.546876,2.8125 9.28125,14.625 -1.17188,1.21875 -18.656246,-18.65625" />
      </g>
    </g>
    <g
       id="g4664">
      <rect
         inkscape:label="#rect7520"
         y="342.05478"
         x="-490.46216"
         height="315"
         width="225"
         id="icärd"
         style="opacity:1;vector-effect:none;fill:#dbcaa3;fill-opacity:1;stroke:none;stroke-width:2.17679334px;stroke-linecap:butt;stroke-linejoin:miter;stroke-miterlimit:4;stroke-dasharray:none;stroke-dashoffset:0;stroke-opacity:1" />
      <path
         d="m -474.59966,348.3548 h 193.16249 q 11.475,0 11.475,15.90748 v 270.58503 q 0,15.90749 -11.475,15.90749 h -193.16249 q -11.36251,0 -11.36251,-15.90749 V 364.26228 q 0,-15.90748 11.36251,-15.90748 m 0,6.3 q -6.86251,0 -6.86251,9.60748 V 557.0423 l 3.93751,5.51249 -3.93751,5.355 v 15.59252 l 6.3,8.82 -6.3,8.82 v 33.705 q 0,9.60749 6.86251,9.60749 h 19.8 l 4.95,-6.93 4.95,6.93 h 163.46249 q 6.975,0 6.975,-9.60749 v -17.955 l -9.225,-12.915 9.225,-13.07252 v -173.7225 l -6.975,-9.765 6.975,-9.92249 v -33.23252 q 0,-9.60748 -6.975,-9.60748 h -86.73749 l -6.41251,9.135 -6.525,-9.135 h -93.48749"
         id="path4530"
         inkscape:connector-curvature="0"
         style="fill:#faf2e1;stroke:none;stroke-width:2.66223598" />
      <path
         d="m -474.59966,354.6548 h 93.48749 l 6.525,9.135 6.41251,-9.135 h 86.73749 q 6.975,0 6.975,9.60748 v 33.23252 l -6.975,9.92249 6.975,9.765 v 173.7225 l -9.225,13.07252 9.225,12.915 v 17.955 q 0,9.60749 -6.975,9.60749 h -163.46249 l -4.95,-6.93 -4.95,6.93 h -19.8 q -6.86251,0 -6.86251,-9.60749 v -33.705 l 6.3,-8.82 -6.3,-8.82 v -15.59252 l 3.93751,-5.355 -3.93751,-5.51249 V 364.26228 q 0,-9.60748 6.86251,-9.60748"
         id="path4532"
         inkscape:connector-curvature="0"
         style="fill:#f1f1cf;fill-opacity:1;stroke:none;stroke-width:2.66223598" />
      <path
         inkscape:label="#path302"
         d="m -474.59966,342.05479 h 193.16249 q 7.98751,0 11.81251,5.82749 4.16249,5.355 4.16249,16.38 v 270.58503 q 0,11.025 -4.16249,16.38 -3.825,5.82749 -11.81251,5.82749 h -193.16249 q -15.86251,0 -15.86251,-22.20749 V 364.26228 q 0,-22.20749 15.86251,-22.20749 m 0,6.30001 q -11.36251,0 -11.36251,15.90748 v 270.58503 q 0,15.90749 11.36251,15.90749 h 193.16249 q 11.475,0 11.475,-15.90749 V 364.26228 q 0,-15.90748 -11.475,-15.90748 h -193.16249"
         id="path4534"
         inkscape:connector-curvature="0"
         style="fill:#dbcaa3;fill-opacity:1;stroke:none;stroke-width:2.66223598" />
      <text
         inkscape:label="#text4138"
         id="ititle"
         y="395.70288"
         x="-377.63867"
         style="font-style:normal;font-variant:normal;font-weight:bold;font-stretch:normal;font-size:25px;line-height:0%;font-family:Carlito;-inkscape-font-specification:'Carlito, Bold';font-variant-ligatures:normal;font-variant-caps:normal;font-variant-numeric:normal;font-feature-settings:normal;text-align:center;letter-spacing:0px;word-spacing:0px;writing-mode:lr-tb;text-anchor:middle;opacity:1;vector-effect:none;fill:#000000;fill-opacity:1;stroke:none;stroke-width:1px;stroke-linecap:butt;stroke-linejoin:miter;stroke-miterlimit:4;stroke-dasharray:none;stroke-dashoffset:0;stroke-opacity:1"
         xml:space="preserve"><tspan
           y="395.70288"
           x="-377.63867"
           id="tspan4544"
           sodipodi:role="line"
           style="font-style:normal;font-variant:normal;font-weight:bold;font-stretch:normal;font-size:25px;line-height:1.25;font-family:Carlito;-inkscape-font-specification:'Carlito, Bold';font-variant-ligatures:normal;font-variant-caps:normal;font-variant-numeric:normal;font-feature-settings:normal;text-align:center;writing-mode:lr-tb;text-anchor:middle;vector-effect:none;fill:#000000;fill-opacity:1;stroke:none;stroke-width:1px;stroke-linecap:butt;stroke-linejoin:miter;stroke-miterlimit:4;stroke-dasharray:none;stroke-dashoffset:0;stroke-opacity:1">TITLE</tspan></text>
      <g
         transform="matrix(2.0647642,0,0,2.0647642,151.19984,229.27016)"
         id="g4556">
        <path
           style="fill:#886644;stroke:none;stroke-width:0.9375"
           inkscape:connector-curvature="0"
           id="path4548"
           d="m -244.77965,179.63517 v -0.46875 q 0,-6.79688 4.73438,-11.625 l 0.0469,-0.0469 q 4.82813,-4.73437 11.625,-4.73437 6.79688,0 11.57813,4.73437 v 0.0469 q 4.82812,4.82813 4.82812,11.625 v 0.46875 q -0.1875,6.51563 -4.82812,11.10938 -4.78125,4.82812 -11.57813,4.82812 -6.79687,0 -11.625,-4.82812 h -0.0469 q -4.54688,-4.59375 -4.73438,-11.10937 m 1.82813,-0.46875 q 0,6.04687 4.26562,10.3125 4.26563,4.21875 10.3125,4.21875 6,0 10.26563,-4.21875 l 0.0469,-0.0469 q 4.21875,-4.26563 4.21875,-10.26563 0,-6.04687 -4.21875,-10.3125 -4.26563,-4.26562 -10.3125,-4.26562 -6,0 -10.3125,4.26562 -4.26563,4.3125 -4.26563,10.3125" />
        <path
           style="fill:#000000;fill-opacity:0.10196078;stroke:none;stroke-width:0.9375"
           inkscape:connector-curvature="0"
           id="path4550"
           d="m -211.96715,179.63517 v 0.46875 0.46875 0.46875 0.46875 0.46875 q 0,6.79687 -4.82812,11.57812 -4.78125,4.82813 -11.57813,4.82813 -6.79687,0 -11.625,-4.82813 h -0.0469 q -4.73438,-4.78125 -4.73438,-11.57812 v -0.46875 -0.46875 -0.46875 -0.46875 -0.46875 q 0.1875,6.51562 4.73438,11.10937 h 0.0469 q 4.82813,4.82813 11.625,4.82813 6.79688,0 11.57813,-4.82813 4.64062,-4.59375 4.82812,-11.10937" />
        <path
           style="fill:#b7916a;stroke:none;stroke-width:0.9375"
           inkscape:connector-curvature="0"
           id="path4552"
           d="m -241.07652,179.16642 q 0,5.25 3.65625,8.95312 3.75,3.75 9.04687,3.75 5.25,0 8.95313,-3.75 3.75,-3.70312 3.75,-8.95312 0,-5.29688 -3.75,-9.04688 -3.70313,-3.65625 -8.95313,-3.65625 -5.29687,0 -9.04687,3.65625 -3.65625,3.75 -3.65625,9.04688 m -1.875,0 q 0,-6 4.26562,-10.3125 4.3125,-4.26563 10.3125,-4.26563 6.04688,0 10.3125,4.26563 4.21875,4.26562 4.21875,10.3125 0,6 -4.21875,10.26562 l -0.0469,0.0469 q -4.26562,4.21875 -10.26562,4.21875 -6.04688,0 -10.3125,-4.21875 -4.26563,-4.26562 -4.26563,-10.3125" />
        <path
           style="fill:#97714a;stroke:none;stroke-width:0.9375"
           inkscape:connector-curvature="0"
           id="path4554"
           d="m -241.07652,179.16642 q 0,-5.29688 3.65625,-9.04688 3.75,-3.65625 9.04687,-3.65625 5.25,0 8.95313,3.65625 3.75,3.75 3.75,9.04688 0,5.25 -3.75,8.95312 -3.70313,3.75 -8.95313,3.75 -5.29687,0 -9.04687,-3.75 -3.65625,-3.70312 -3.65625,-8.95312" />
      </g>
      <g
         transform="matrix(2.0647642,0,0,2.0647642,-141.17685,749.58519)"
         id="g4570">
        <path
           style="fill:#6b6b6b;stroke:none;stroke-width:0.9375"
           inkscape:connector-curvature="0"
           id="path4558"
           d="m -102.25637,-85.101809 -0.32813,-1.17187 q -0.23437,-0.70313 0.0937,-1.3125 0.28125,-0.60938 0.89063,-0.89063 l 1.3125,-0.0937 10.546866,2.8125 q 0.70313,0.14063 1.07813,0.79688 l 8.01562,12.60937 1.5,-1.453125 0.32813,-0.28125 q 0.42187,-0.28125 0.98437,-0.28125 0.5625,0 1.03125,0.28125 l 0.32813,0.28125 1.875,1.875 q 0.51562,0.515625 0.51562,1.3125 0,0.75 -0.51562,1.3125 l -0.0937,0.09375 -1.35938,1.40625 1.40625,1.40625 0.46875,0.46875 0.375,-0.04687 q 0.79688,0 1.35938,0.5625 l 1.21875,1.21875 q 0.51562,0.515625 0.51562,1.3125 0,0.796875 -0.51562,1.359375 l -0.0937,0.04687 -4.21875,4.265625 q -0.5625,0.515625 -1.35938,0.515625 -0.79687,0 -1.3125,-0.515625 l -1.21875,-1.21875 q -0.5625,-0.5625 -0.5625,-1.359375 l 0.0469,-0.375 -1.875,-1.875 -1.5,1.453125 q -0.5625,0.515625 -1.3125,0.515625 -0.79687,0 -1.3125,-0.515625 l -1.78125,-1.78125 -0.0937,-0.09375 q -0.5625,-0.5625 -0.5625,-1.359375 0,-0.65625 0.375,-1.125 l 0.1875,-0.1875 1.5,-1.546875 -12.60937,-7.96875 q -0.65625,-0.375 -0.79688,-1.078125 l -2.531246,-9.375 m 23.531256,17.296875 2.76562,-2.8125 -1.875,-1.875 -3.14062,3.140625 -9.28125,-14.625 -10.546876,-2.8125 2.859376,10.546875 14.625,9.234375 -3.1875,3.1875 1.875,1.875 2.8125,-2.765625 4.3125,4.3125 -0.60938,0.609375 1.21875,1.21875 4.3125,-4.3125 -1.21875,-1.21875 -0.60937,0.609375 -4.3125,-4.3125" />
        <path
           style="fill:#a8a8a8;stroke:none;stroke-width:0.9375"
           inkscape:connector-curvature="0"
           id="path4560"
           d="m -78.725124,-67.804934 -3.09375,3.09375 -2.8125,2.765625 -1.875,-1.875 3.1875,-3.1875 1.17187,-1.125 1.17188,-1.21875 3.14062,-3.140625 1.875,1.875 -2.76562,2.8125 m 4.3125,4.3125 0.60937,-0.609375 1.21875,1.21875 -4.3125,4.3125 -1.21875,-1.21875 0.60938,-0.609375 3.09375,-3.09375" />
        <path
           style="fill:#000000;fill-opacity:0.10196078;stroke:none;stroke-width:0.9375"
           inkscape:connector-curvature="0"
           id="path4562"
           d="m -74.693874,-69.211184 0.0937,0.09375 q 0.51562,0.515625 0.51562,1.3125 0,0.75 -0.51562,1.3125 l -0.0469,0.09375 -1.40625,-1.40625 1.35937,-1.40625 m 3.375,7.734375 0.0937,0.09375 q 0.51563,0.515625 0.51563,1.3125 0,0.796875 -0.51563,1.359375 l -4.3125,4.3125 q -0.5625,0.515625 -1.35937,0.515625 -0.79688,0 -1.3125,-0.515625 l -1.21875,-1.21875 q -0.5625,-0.5625 -0.5625,-1.359375 l 0.0469,-0.375 -1.875,-1.875 -1.5,1.453125 q -0.5625,0.515625 -1.3125,0.515625 -0.79688,0 -1.3125,-0.515625 l -1.875,-1.875 q -0.5625,-0.5625 -0.5625,-1.359375 0,-0.796875 0.5625,-1.3125 l 0.0937,-0.04687 1.78125,1.78125 q 0.51562,0.515625 1.3125,0.515625 0.75,0 1.3125,-0.515625 l 1.5,-1.453125 1.875,1.875 -0.0469,0.375 q 0,0.796875 0.5625,1.359375 l 1.21875,1.21875 q 0.51562,0.515625 1.3125,0.515625 0.79687,0 1.35937,-0.515625 l 4.21875,-4.265625 m -16.6875,-3.468755 -10.92188,-6.890625 q -0.65625,-0.375 -0.79687,-1.078125 l -2.859376,-10.54687 q -0.23437,-0.70313 0.0937,-1.3125 l 0.23438,-0.32813 2.531246,9.375 q 0.14062,0.703125 0.79687,1.078125 l 12.60938,7.96875 -1.5,1.546875 -0.1875,0.1875" />
        <path
           style="fill:#e0e0e0;stroke:none;stroke-width:0.9375"
           inkscape:connector-curvature="0"
           id="path4564"
           d="m -83.318874,-67.008059 -14.625,-9.234375 -2.859376,-10.546875 18.656246,18.65625 -1.17187,1.125" />
        <path
           style="fill:#666666;stroke:none;stroke-width:0.9375"
           inkscape:connector-curvature="0"
           id="path4566"
           d="m -78.725124,-67.804934 4.3125,4.3125 -3.09375,3.09375 -4.3125,-4.3125 3.09375,-3.09375" />
        <path
           style="fill:#ffffff;stroke:none;stroke-width:0.9375"
           inkscape:connector-curvature="0"
           id="path4568"
           d="m -100.80325,-86.789309 10.546876,2.8125 9.28125,14.625 -1.17188,1.21875 -18.656246,-18.65625" />
      </g>
      <text
         inkscape:label="#text4598"
         id="iline1"
         y="438.64587"
         x="-478.96695"
         style="font-style:normal;font-weight:normal;font-size:17.5px;line-height:1.25;font-family:Carlito;letter-spacing:0px;word-spacing:0px;fill:#000000;fill-opacity:1;stroke:none;stroke-width:1px;font-variant-east_asian:normal;opacity:1;vector-effect:none;stroke-linecap:butt;stroke-linejoin:miter;stroke-miterlimit:4;stroke-dasharray:none;stroke-dashoffset:0;stroke-opacity:1;-inkscape-font-specification:'Carlito, Normal';font-stretch:normal;font-variant:normal;text-anchor:start;text-align:start;writing-mode:lr;font-variant-ligatures:normal;font-variant-caps:normal;font-variant-numeric:normal;font-feature-settings:normal;"
         xml:space="preserve"><tspan
           style="stroke-width:1px;font-variant-east_asian:normal;vector-effect:none;fill:#000000;fill-opacity:1;stroke:none;stroke-linecap:butt;stroke-linejoin:miter;stroke-miterlimit:4;stroke-dasharray:none;stroke-dashoffset:0;stroke-opacity:1;-inkscape-font-specification:'Carlito, Normal';font-family:Carlito;font-weight:normal;font-style:normal;font-stretch:normal;font-variant:normal;font-size:17.5px;text-anchor:start;text-align:start;writing-mode:lr;font-variant-ligatures:normal;font-variant-caps:normal;font-variant-numeric:normal;font-feature-settings:normal;"
           y="438.64587"
           x="-478.96695"
           id="tspan4596"
           sodipodi:role="line">line 1</tspan></text>
      <text
         inkscape:label="#text4634"
         xml:space="preserve"
         style="font-style:normal;font-variant:normal;font-weight:normal;font-stretch:normal;font-size:17.5px;line-height:1.25;font-family:Carlito;-inkscape-font-specification:'Carlito, Normal';font-variant-ligatures:normal;font-variant-caps:normal;font-variant-numeric:normal;font-feature-settings:normal;text-align:start;letter-spacing:0px;word-spacing:0px;writing-mode:lr-tb;text-anchor:start;opacity:1;vector-effect:none;fill:#000000;fill-opacity:1;stroke:none;stroke-width:1px;stroke-linecap:butt;stroke-linejoin:miter;stroke-miterlimit:4;stroke-dasharray:none;stroke-dashoffset:0;stroke-opacity:1"
         x="-478.96695"
         y="459.41827"
         id="iline2"><tspan
           sodipodi:role="line"
           id="tspan4632"
           x="-478.96695"
           y="459.41827"
           style="font-style:normal;font-variant:normal;font-weight:normal;font-stretch:normal;font-size:17.5px;font-family:Carlito;-inkscape-font-specification:'Carlito, Normal';font-variant-ligatures:normal;font-variant-caps:normal;font-variant-numeric:normal;font-feature-settings:normal;text-align:start;writing-mode:lr-tb;text-anchor:start;vector-effect:none;fill:#000000;fill-opacity:1;stroke:none;stroke-width:1px;stroke-linecap:butt;stroke-linejoin:miter;stroke-miterlimit:4;stroke-dasharray:none;stroke-dashoffset:0;stroke-opacity:1">line 2</tspan></text>
      <text
         inkscape:label="#text4638"
         id="iline3"
         y="480.1907"
         x="-478.96695"
         style="font-style:normal;font-variant:normal;font-weight:normal;font-stretch:normal;font-size:17.5px;line-height:1.25;font-family:Carlito;-inkscape-font-specification:'Carlito, Normal';font-variant-ligatures:normal;font-variant-caps:normal;font-variant-numeric:normal;font-feature-settings:normal;text-align:start;letter-spacing:0px;word-spacing:0px;writing-mode:lr-tb;text-anchor:start;opacity:1;vector-effect:none;fill:#000000;fill-opacity:1;stroke:none;stroke-width:1px;stroke-linecap:butt;stroke-linejoin:miter;stroke-miterlimit:4;stroke-dasharray:none;stroke-dashoffset:0;stroke-opacity:1"
         xml:space="preserve"><tspan
           style="font-style:normal;font-variant:normal;font-weight:normal;font-stretch:normal;font-size:17.5px;font-family:Carlito;-inkscape-font-specification:'Carlito, Normal';font-variant-ligatures:normal;font-variant-caps:normal;font-variant-numeric:normal;font-feature-settings:normal;text-align:start;writing-mode:lr-tb;text-anchor:start;vector-effect:none;fill:#000000;fill-opacity:1;stroke:none;stroke-width:1px;stroke-linecap:butt;stroke-linejoin:miter;stroke-miterlimit:4;stroke-dasharray:none;stroke-dashoffset:0;stroke-opacity:1"
           y="480.1907"
           x="-478.96695"
           id="tspan4636"
           sodipodi:role="line">line 3</tspan></text>
    </g>
  </g>
</svg>
