<?xml version="1.0" encoding="UTF-8" standalone="no"?>
<!-- Created with Inkscape (http://www.inkscape.org/) -->

<svg
   xmlns:dc="http://purl.org/dc/elements/1.1/"
   xmlns:cc="http://creativecommons.org/ns#"
   xmlns:rdf="http://www.w3.org/1999/02/22-rdf-syntax-ns#"
   xmlns:svg="http://www.w3.org/2000/svg"
   xmlns="http://www.w3.org/2000/svg"
   xmlns:xlink="http://www.w3.org/1999/xlink"
   xmlns:sodipodi="http://sodipodi.sourceforge.net/DTD/sodipodi-0.dtd"
   xmlns:inkscape="http://www.inkscape.org/namespaces/inkscape"
   sodipodi:docname="fills.svg"
   inkscape:version="0.91 r13725"
   version="1.1"
   id="svg9019"
   viewBox="0 0 744.09448819 1052.3622047"
   height="297mm"
   width="210mm">
  <sodipodi:namedview
     inkscape:window-maximized="1"
     inkscape:window-y="0"
     inkscape:window-x="0"
     inkscape:window-height="1036"
     inkscape:window-width="1857"
     showgrid="false"
     inkscape:current-layer="svg9019"
     inkscape:document-units="px"
     inkscape:cy="708.27605"
     inkscape:cx="167.61167"
     inkscape:zoom="0.98994949"
     inkscape:pageshadow="2"
     inkscape:pageopacity="0.0"
     borderopacity="1.0"
     bordercolor="#666666"
     pagecolor="#ffffff"
     id="base" />
  <defs
     id="defs9021">
    <pattern
       patternTransform="scale(10,10)"
       id="pattern15045"
       xlink:href="#Polkadots-med"
       inkscape:collect="always" />
    <pattern
       inkscape:collect="always"
       patternUnits="userSpaceOnUse"
       width="10"
       height="10"
       patternTransform="translate(0,0) scale(10,10)"
       id="Polkadots-med"
       inkscape:stockid="Polka dots, medium">
      <circle
         style="fill:black;stroke:none"
         cx="2.567"
         cy="0.810"
         r="0.15"
         id="circle14510" />
      <circle
         style="fill:black;stroke:none"
         cx="3.048"
         cy="2.33"
         r="0.15"
         id="circle14512" />
      <circle
         style="fill:black;stroke:none"
         cx="4.418"
         cy="2.415"
         r="0.15"
         id="circle14514" />
      <circle
         style="fill:black;stroke:none"
         cx="1.844"
         cy="3.029"
         r="0.15"
         id="circle14516" />
      <circle
         style="fill:black;stroke:none"
         cx="6.08"
         cy="1.363"
         r="0.15"
         id="circle14518" />
      <circle
         style="fill:black;stroke:none"
         cx="5.819"
         cy="4.413"
         r="0.15"
         id="circle14520" />
      <circle
         style="fill:black;stroke:none"
         cx="4.305"
         cy="4.048"
         r="0.15"
         id="circle14522" />
      <circle
         style="fill:black;stroke:none"
         cx="5.541"
         cy="3.045"
         r="0.15"
         id="circle14524" />
      <circle
         style="fill:black;stroke:none"
         cx="4.785"
         cy="5.527"
         r="0.15"
         id="circle14526" />
      <circle
         style="fill:black;stroke:none"
         cx="2.667"
         cy="5.184"
         r="0.15"
         id="circle14528" />
      <circle
         style="fill:black;stroke:none"
         cx="7.965"
         cy="1.448"
         r="0.15"
         id="circle14530" />
      <circle
         style="fill:black;stroke:none"
         cx="7.047"
         cy="5.049"
         r="0.15"
         id="circle14532" />
      <circle
         style="fill:black;stroke:none"
         cx="4.340"
         cy="0.895"
         r="0.15"
         id="circle14534" />
      <circle
         style="fill:black;stroke:none"
         cx="7.125"
         cy="0.340"
         r="0.15"
         id="circle14536" />
      <circle
         style="fill:black;stroke:none"
         cx="9.553"
         cy="1.049"
         r="0.15"
         id="circle14538" />
      <circle
         style="fill:black;stroke:none"
         cx="7.006"
         cy="2.689"
         r="0.15"
         id="circle14540" />
      <circle
         style="fill:black;stroke:none"
         cx="8.909"
         cy="2.689"
         r="0.15"
         id="circle14542" />
      <circle
         style="fill:black;stroke:none"
         cx="9.315"
         cy="4.407"
         r="0.15"
         id="circle14544" />
      <circle
         style="fill:black;stroke:none"
         cx="7.820"
         cy="3.870"
         r="0.15"
         id="circle14546" />
      <circle
         style="fill:black;stroke:none"
         cx="8.270"
         cy="5.948"
         r="0.15"
         id="circle14548" />
      <circle
         style="fill:black;stroke:none"
         cx="7.973"
         cy="7.428"
         r="0.15"
         id="circle14550" />
      <circle
         style="fill:black;stroke:none"
         cx="9.342"
         cy="8.072"
         r="0.15"
         id="circle14552" />
      <circle
         style="fill:black;stroke:none"
         cx="8.206"
         cy="9.315"
         r="0.15"
         id="circle14554" />
      <circle
         style="fill:black;stroke:none"
         cx="9.682"
         cy="9.475"
         r="0.15"
         id="circle14556" />
      <circle
         style="fill:black;stroke:none"
         cx="9.688"
         cy="6.186"
         r="0.15"
         id="circle14558" />
      <circle
         style="fill:black;stroke:none"
         cx="3.379"
         cy="6.296"
         r="0.15"
         id="circle14560" />
      <circle
         style="fill:black;stroke:none"
         cx="2.871"
         cy="8.204"
         r="0.15"
         id="circle14562" />
      <circle
         style="fill:black;stroke:none"
         cx="4.59"
         cy="8.719"
         r="0.15"
         id="circle14564" />
      <circle
         style="fill:black;stroke:none"
         cx="3.181"
         cy="9.671"
         r="0.15"
         id="circle14566" />
      <circle
         style="fill:black;stroke:none"
         cx="5.734"
         cy="7.315"
         r="0.15"
         id="circle14568" />
      <circle
         style="fill:black;stroke:none"
         cx="6.707"
         cy="6.513"
         r="0.15"
         id="circle14570" />
      <circle
         style="fill:black;stroke:none"
         cx="5.730"
         cy="9.670"
         r="0.15"
         id="circle14572" />
      <circle
         style="fill:black;stroke:none"
         cx="6.535"
         cy="8.373"
         r="0.15"
         id="circle14574" />
      <circle
         style="fill:black;stroke:none"
         cx="4.37"
         cy="7.154"
         r="0.15"
         id="circle14576" />
      <circle
         style="fill:black;stroke:none"
         cx="0.622"
         cy="7.25"
         r="0.15"
         id="circle14578" />
      <circle
         style="fill:black;stroke:none"
         cx="0.831"
         cy="5.679"
         r="0.15"
         id="circle14580" />
      <circle
         style="fill:black;stroke:none"
         cx="1.257"
         cy="8.519"
         r="0.15"
         id="circle14582" />
      <circle
         style="fill:black;stroke:none"
         cx="1.989"
         cy="6.877"
         r="0.15"
         id="circle14584" />
      <circle
         style="fill:black;stroke:none"
         cx="0.374"
         cy="3.181"
         r="0.15"
         id="circle14586" />
      <circle
         style="fill:black;stroke:none"
         cx="1.166"
         cy="1.664"
         r="0.15"
         id="circle14588" />
      <circle
         style="fill:black;stroke:none"
         cx="1.151"
         cy="0.093"
         r="0.15"
         id="circle14590" />
      <circle
         style="fill:black;stroke:none"
         cx="1.151"
         cy="10.093"
         r="0.15"
         id="circle14592" />
      <circle
         style="fill:black;stroke:none"
         cx="1.302"
         cy="4.451"
         r="0.15"
         id="circle14594" />
      <circle
         style="fill:black;stroke:none"
         cx="3.047"
         cy="3.763"
         r="0.15"
         id="circle14596" />
    </pattern>
    <linearGradient
       id="linearGradient13501"
       inkscape:collect="always">
      <stop
         id="stop13503"
         offset="0"
         style="stop-color:#000000;stop-opacity:1;" />
      <stop
         id="stop13505"
         offset="1"
         style="stop-color:#000000;stop-opacity:0;" />
    </linearGradient>
    <linearGradient
       gradientUnits="userSpaceOnUse"
       y2="180.21935"
       x2="-169.4857"
       y1="113.07649"
       x1="-316.22856"
       id="linearGradient13507"
       xlink:href="#linearGradient13501"
       inkscape:collect="always" />
    <radialGradient
       gradientUnits="userSpaceOnUse"
       gradientTransform="matrix(0.981082,0.96481266,-0.91340489,0.92880736,273.64833,277.93742)"
       r="75.51429"
       fy="305.19839"
       fx="-270.71429"
       cy="305.19839"
       cx="-270.71429"
       id="radialGradient13513"
       xlink:href="#linearGradient13501"
       inkscape:collect="always" />
  </defs>
  <metadata
     id="metadata9024">
    <rdf:RDF>
      <cc:Work
         rdf:about="">
        <dc:format>image/svg+xml</dc:format>
        <dc:type
           rdf:resource="http://purl.org/dc/dcmitype/StillImage" />
        <dc:title />
      </cc:Work>
    </rdf:RDF>
  </metadata>
  <g
     id="layer1"
     inkscape:groupmode="layer"
     inkscape:label="Layer 1">
    <g
       id="g15148">
      <rect
         style="color:#000000;clip-rule:nonzero;display:inline;overflow:visible;visibility:visible;opacity:1;isolation:auto;mix-blend-mode:normal;color-interpolation:sRGB;color-interpolation-filters:linearRGB;solid-color:#000000;solid-opacity:1;fill:url(#linearGradient13507);fill-opacity:1;fill-rule:nonzero;stroke:#000000;stroke-width:9.60000038;stroke-linecap:butt;stroke-linejoin:miter;stroke-miterlimit:4;stroke-dasharray:none;stroke-dashoffset:0;stroke-opacity:1;marker:none;color-rendering:auto;image-rendering:auto;shape-rendering:auto;text-rendering:auto;enable-background:accumulate"
         id="linear"
         width="141.42857"
         height="187.14285"
         x="-311.42856"
         y="19.505062"
         inkscape:label="#rect13499" />
      <text
         xml:space="preserve"
         style="font-style:normal;font-variant:normal;font-weight:normal;font-stretch:normal;font-size:17.5px;line-height:125%;font-family:Alegreya;-inkscape-font-specification:'Alegreya, Normal';text-align:start;letter-spacing:0px;word-spacing:0px;writing-mode:lr-tb;text-anchor:start;fill:#000000;fill-opacity:1;stroke:none;stroke-width:1px;stroke-linecap:butt;stroke-linejoin:miter;stroke-opacity:1"
         x="-278.57144"
         y="103.79078"
         id="text15047"
         sodipodi:linespacing="125%"><tspan
           sodipodi:role="line"
           id="tspan15049"
           x="-278.57144"
           y="103.79078">LINEAR</tspan><tspan
           sodipodi:role="line"
           x="-278.57144"
           y="125.66578"
           id="tspan15051">GRADIENT</tspan></text>
      <rect
         style="color:#000000;clip-rule:nonzero;display:inline;overflow:visible;visibility:visible;opacity:1;isolation:auto;mix-blend-mode:normal;color-interpolation:sRGB;color-interpolation-filters:linearRGB;solid-color:#000000;solid-opacity:1;fill:none;fill-opacity:1;fill-rule:nonzero;stroke:#312ec8;stroke-width:9.60000038;stroke-linecap:butt;stroke-linejoin:miter;stroke-miterlimit:4;stroke-dasharray:none;stroke-dashoffset:0;stroke-opacity:1;marker:none;color-rendering:auto;image-rendering:auto;shape-rendering:auto;text-rendering:auto;enable-background:accumulate"
         id="rect15071"
         width="17.172594"
         height="28.284271"
         x="-216.17264"
         y="156.35689" />
      <ellipse
         style="color:#000000;clip-rule:nonzero;display:inline;overflow:visible;visibility:visible;opacity:1;isolation:auto;mix-blend-mode:normal;color-interpolation:sRGB;color-interpolation-filters:linearRGB;solid-color:#000000;solid-opacity:1;fill:none;fill-opacity:1;fill-rule:nonzero;stroke:#5dc568;stroke-width:9.60000038;stroke-linecap:butt;stroke-linejoin:miter;stroke-miterlimit:4;stroke-dasharray:none;stroke-dashoffset:0;stroke-opacity:0.5089286;marker:none;color-rendering:auto;image-rendering:auto;shape-rendering:auto;text-rendering:auto;enable-background:accumulate"
         id="path15073"
         cx="-210.61681"
         cy="74.029465"
         rx="5.5558391"
         ry="9.5964489" />
      <path
         sodipodi:type="star"
         style="color:#000000;clip-rule:nonzero;display:inline;overflow:visible;visibility:visible;opacity:1;isolation:auto;mix-blend-mode:normal;color-interpolation:sRGB;color-interpolation-filters:linearRGB;solid-color:#000000;solid-opacity:1;fill:none;fill-opacity:1;fill-rule:nonzero;stroke:#eef330;stroke-width:9.60000038;stroke-linecap:butt;stroke-linejoin:miter;stroke-miterlimit:4;stroke-dasharray:none;stroke-dashoffset:0;stroke-opacity:1;marker:none;color-rendering:auto;image-rendering:auto;shape-rendering:auto;text-rendering:auto;enable-background:accumulate;filter-blend-mode:normal;filter-gaussianBlur-deviation:0"
         id="path15079"
         sodipodi:sides="6"
         sodipodi:cx="-278.8021"
         sodipodi:cy="169.48889"
         sodipodi:r1="15.016997"
         sodipodi:r2="13.005101"
         sodipodi:arg1="1.2277724"
         sodipodi:arg2="1.7513712"
         inkscape:flatsided="true"
         inkscape:rounded="0"
         inkscape:randomized="0"
         d="m -273.75133,183.63103 -14.77283,-2.69698 -5.05076,-14.14214 9.72206,-11.44515 14.77283,2.69697 5.05077,14.14214 z" />
      <path
         style="fill:none;fill-rule:evenodd;stroke:#d1a031;stroke-width:1px;stroke-linecap:butt;stroke-linejoin:miter;stroke-opacity:1"
         d="m -278.8021,71.504083 c 2.82245,-3.928356 -2.55427,-3.146001 -3.03046,-5.050763 -0.245,-0.979991 0,-2.020305 0,-3.030457 0,-0.673435 0,-1.34687 0,-2.020305 0,-1.010153 0,-2.020305 0,-3.030458 0,-1.010152 -0.14286,-2.030458 0,-3.030458 0.19634,-1.374368 0.62875,-2.705705 1.01015,-4.04061 0.29252,-1.023825 0.25723,-2.277534 1.01015,-3.030457 0.4762,-0.476191 1.45998,0.373554 2.02031,0 0.62647,-0.417647 0.47776,-1.487908 1.01015,-2.020305 0.2381,-0.238096 0.67344,0 1.01016,0 3.414,0 0.91999,-0.476191 4.04061,2.020305 0.94801,0.758412 2.27204,1.072289 3.03045,2.020305 0.66517,0.831464 0.59071,2.051757 1.01016,3.030457 1.18636,2.768183 2.69374,5.387481 4.04061,8.081221 0.33671,0.673435 0.67343,1.34687 1.01015,2.020305 0.33672,0 0.77206,-0.238095 1.01015,0 0.2381,0.238095 0.33672,1.010152 0,1.010152 -0.33672,0 -0.18678,-0.729986 0,-1.010152 0.52829,-0.792429 1.34687,-1.34687 2.02031,-2.020305 1.01015,-1.010153 2.10075,-1.945806 3.03045,-3.030458 1.09567,-1.278275 1.83998,-2.850134 3.03046,-4.04061 2.1754,-2.175399 4.92301,-4.04061 8.08122,-4.04061 0.33672,0 0.67344,0 1.01015,0 0.33672,0 0.77206,-0.238096 1.01016,0 0.23809,0.238095 -0.18678,0.729986 0,1.010152 6.14949,9.224238 -1.60175,-5.815386 2.0203,5.050763 0.38392,1.151751 1.56942,1.903238 2.02031,3.030458 0.37516,0.937903 0,2.020305 0,3.030457"
         id="path15085"
         inkscape:connector-curvature="0" />
    </g>
    <g
       id="g15158">
      <rect
         y="228.07649"
         x="-314.28571"
         height="187.14285"
         width="141.42857"
         id="radial"
         style="color:#000000;clip-rule:nonzero;display:inline;overflow:visible;visibility:visible;opacity:1;isolation:auto;mix-blend-mode:normal;color-interpolation:sRGB;color-interpolation-filters:linearRGB;solid-color:#000000;solid-opacity:1;fill:url(#radialGradient13513);fill-opacity:1;fill-rule:nonzero;stroke:#000000;stroke-width:9.60000038;stroke-linecap:butt;stroke-linejoin:miter;stroke-miterlimit:4;stroke-dasharray:none;stroke-dashoffset:0;stroke-opacity:1;marker:none;color-rendering:auto;image-rendering:auto;shape-rendering:auto;text-rendering:auto;enable-background:accumulate"
         inkscape:label="#rect13509" />
      <text
         xml:space="preserve"
         style="font-style:normal;font-variant:normal;font-weight:normal;font-stretch:normal;font-size:17.5px;line-height:125%;font-family:Alegreya;-inkscape-font-specification:'Alegreya, Normal';text-align:start;letter-spacing:0px;word-spacing:0px;writing-mode:lr-tb;text-anchor:start;fill:#000000;fill-opacity:1;stroke:none;stroke-width:1px;stroke-linecap:butt;stroke-linejoin:miter;stroke-opacity:1"
         x="-272.85715"
         y="316.64792"
         id="text15053"
         sodipodi:linespacing="125%"><tspan
           sodipodi:role="line"
           id="tspan15055"
           x="-272.85715"
           y="316.64792">RADIAL</tspan><tspan
           sodipodi:role="line"
           x="-272.85715"
           y="338.52292"
           id="tspan15057">GRADIENT</tspan></text>
      <rect
         style="color:#000000;clip-rule:nonzero;display:inline;overflow:visible;visibility:visible;opacity:1;isolation:auto;mix-blend-mode:normal;color-interpolation:sRGB;color-interpolation-filters:linearRGB;solid-color:#000000;solid-opacity:1;fill:none;fill-opacity:1;fill-rule:nonzero;stroke:#312ec8;stroke-width:9.60000038;stroke-linecap:butt;stroke-linejoin:miter;stroke-miterlimit:4;stroke-dasharray:none;stroke-dashoffset:0;stroke-opacity:1;marker:none;color-rendering:auto;image-rendering:auto;shape-rendering:auto;text-rendering:auto;enable-background:accumulate;filter-blend-mode:normal;filter-gaussianBlur-deviation:0"
         id="rect15069"
         width="18.182745"
         height="29.294424"
         x="-209.10158"
         y="364.44833" />
      <ellipse
         style="color:#000000;clip-rule:nonzero;display:inline;overflow:visible;visibility:visible;opacity:1;isolation:auto;mix-blend-mode:normal;color-interpolation:sRGB;color-interpolation-filters:linearRGB;solid-color:#000000;solid-opacity:1;fill:none;fill-opacity:1;fill-rule:nonzero;stroke:#5dc568;stroke-width:9.60000038;stroke-linecap:butt;stroke-linejoin:miter;stroke-miterlimit:4;stroke-dasharray:none;stroke-dashoffset:0;stroke-opacity:0.50892861;marker:none;color-rendering:auto;image-rendering:auto;shape-rendering:auto;text-rendering:auto;enable-background:accumulate;filter-blend-mode:normal;filter-gaussianBlur-deviation:0"
         id="path15075"
         cx="-213.14218"
         cy="270.50412"
         rx="9.0913725"
         ry="10.101525" />
      <path
         sodipodi:type="star"
         style="color:#000000;clip-rule:nonzero;display:inline;overflow:visible;visibility:visible;opacity:1;isolation:auto;mix-blend-mode:normal;color-interpolation:sRGB;color-interpolation-filters:linearRGB;solid-color:#000000;solid-opacity:1;fill:none;fill-opacity:1;fill-rule:nonzero;stroke:#eef330;stroke-width:9.60000038;stroke-linecap:butt;stroke-linejoin:miter;stroke-miterlimit:4;stroke-dasharray:none;stroke-dashoffset:0;stroke-opacity:1;marker:none;color-rendering:auto;image-rendering:auto;shape-rendering:auto;text-rendering:auto;enable-background:accumulate"
         id="path15081"
         sodipodi:sides="6"
         sodipodi:cx="-276.7818"
         sodipodi:cy="378.59045"
         sodipodi:r1="19.430672"
         sodipodi:r2="16.827456"
         sodipodi:arg1="1.0838971"
         sodipodi:arg2="1.6074959"
         inkscape:flatsided="true"
         inkscape:rounded="0"
         inkscape:randomized="0"
         d="m -267.69043,395.76305 -19.41758,-0.71294 -9.09138,-17.17259 10.32622,-16.45966 19.41759,0.71294 9.09137,17.17259 z" />
      <path
         style="fill:none;fill-rule:evenodd;stroke:#d1a031;stroke-width:1px;stroke-linecap:butt;stroke-linejoin:miter;stroke-opacity:1"
         d="m -289.91378,268.48383 c 0.0993,-2.03869 -0.99614,-10.61361 2.0203,-12.12183 0.95239,-0.47619 2.04183,-0.6147 3.03046,-1.01015 1.40019,-0.56008 2.36078,-1.68209 4.04061,-1.01016 2.89387,1.15755 3.7314,3.1095 6.06092,5.05077 0.93266,0.77721 2.27204,1.07229 3.03046,2.0203 0.66517,0.83147 0.46232,2.11741 1.01015,3.03046 2.49649,4.16083 2.0203,-0.10894 2.0203,4.04061 0,0.33672 0,-0.67344 0,-1.01015 0,-1.01016 -0.245,-2.05047 0,-3.03046 0.37799,-1.51195 2.48731,-3.96446 3.03046,-5.05076 2.92381,-5.84763 -1.70412,-0.31618 4.04061,-6.06092 0.33672,-0.33672 0.5584,-0.85957 1.01015,-1.01015 2.19386,-0.73129 2.06573,0.51643 4.04061,1.01015 0.65333,0.16333 1.44284,-0.34648 2.02031,0 1.22499,0.735 1.933,2.11591 3.03046,3.03046 0.93266,0.77722 2.27204,1.07229 3.03045,2.0203 1.51419,1.89273 1.01016,4.83399 1.01016,7.07107"
         id="path15087"
         inkscape:connector-curvature="0" />
    </g>
    <g
       id="g15168">
      <rect
         style="color:#000000;clip-rule:nonzero;display:inline;overflow:visible;visibility:visible;opacity:1;isolation:auto;mix-blend-mode:normal;color-interpolation:sRGB;color-interpolation-filters:linearRGB;solid-color:#000000;solid-opacity:1;fill:url(#pattern15045);fill-opacity:1;fill-rule:nonzero;stroke:#000000;stroke-width:9.60000038;stroke-linecap:butt;stroke-linejoin:miter;stroke-miterlimit:4;stroke-dasharray:none;stroke-dashoffset:0;stroke-opacity:1;marker:none;color-rendering:auto;image-rendering:auto;shape-rendering:auto;text-rendering:auto;enable-background:accumulate"
         id="pattern"
         width="141.42857"
         height="187.14285"
         x="-304.28571"
         y="443.79077"
         inkscape:label="#rect13515" />
      <text
         xml:space="preserve"
         style="font-style:normal;font-variant:normal;font-weight:normal;font-stretch:normal;font-size:17.5px;line-height:125%;font-family:Alegreya;-inkscape-font-specification:'Alegreya, Normal';text-align:start;letter-spacing:0px;word-spacing:0px;writing-mode:lr-tb;text-anchor:start;fill:#000000;fill-opacity:1;stroke:none;stroke-width:1px;stroke-linecap:butt;stroke-linejoin:miter;stroke-opacity:1"
         x="-262.85715"
         y="510.93362"
         id="text15059"
         sodipodi:linespacing="125%"><tspan
           sodipodi:role="line"
           id="tspan15061"
           x="-262.85715"
           y="510.93362">PATTERN</tspan><tspan
           sodipodi:role="line"
           x="-262.85715"
           y="532.80859"
           id="tspan15063">POLKA</tspan><tspan
           sodipodi:role="line"
           x="-262.85715"
           y="554.68359"
           id="tspan15065">DOTS</tspan></text>
      <rect
         style="color:#000000;clip-rule:nonzero;display:inline;overflow:visible;visibility:visible;opacity:1;isolation:auto;mix-blend-mode:normal;color-interpolation:sRGB;color-interpolation-filters:linearRGB;solid-color:#000000;solid-opacity:1;fill:none;fill-opacity:1;fill-rule:nonzero;stroke:#312ec8;stroke-width:9.60000038;stroke-linecap:butt;stroke-linejoin:miter;stroke-miterlimit:4;stroke-dasharray:none;stroke-dashoffset:0;stroke-opacity:1;marker:none;color-rendering:auto;image-rendering:auto;shape-rendering:auto;text-rendering:auto;enable-background:accumulate;filter-blend-mode:normal;filter-gaussianBlur-deviation:0"
         id="rect15067"
         width="21.213203"
         height="23.233509"
         x="-220.21326"
         y="587.69208" />
      <ellipse
         style="color:#000000;clip-rule:nonzero;display:inline;overflow:visible;visibility:visible;opacity:1;isolation:auto;mix-blend-mode:normal;color-interpolation:sRGB;color-interpolation-filters:linearRGB;solid-color:#000000;solid-opacity:1;fill:none;fill-opacity:1;fill-rule:nonzero;stroke:#5dc568;stroke-width:9.60000038;stroke-linecap:butt;stroke-linejoin:miter;stroke-miterlimit:4;stroke-dasharray:none;stroke-dashoffset:0;stroke-opacity:0.50892861;marker:none;color-rendering:auto;image-rendering:auto;shape-rendering:auto;text-rendering:auto;enable-background:accumulate;filter-blend-mode:normal;filter-gaussianBlur-deviation:0"
         id="path15077"
         cx="-197.48482"
         cy="479.10065"
         rx="10.606602"
         ry="8.586297" />
      <path
         sodipodi:type="star"
         style="color:#000000;clip-rule:nonzero;display:inline;overflow:visible;visibility:visible;opacity:1;isolation:auto;mix-blend-mode:normal;color-interpolation:sRGB;color-interpolation-filters:linearRGB;solid-color:#000000;solid-opacity:1;fill:none;fill-opacity:1;fill-rule:nonzero;stroke:#eef330;stroke-width:9.60000038;stroke-linecap:butt;stroke-linejoin:miter;stroke-miterlimit:4;stroke-dasharray:none;stroke-dashoffset:0;stroke-opacity:1;marker:none;color-rendering:auto;image-rendering:auto;shape-rendering:auto;text-rendering:auto;enable-background:accumulate;filter-blend-mode:normal;filter-gaussianBlur-deviation:0"
         id="path15083"
         sodipodi:sides="6"
         sodipodi:cx="-260.61936"
         sodipodi:cy="585.67171"
         sodipodi:r1="24.095898"
         sodipodi:r2="20.867659"
         sodipodi:arg1="0.99442111"
         sodipodi:arg2="1.5180199"
         inkscape:flatsided="true"
         inkscape:rounded="0"
         inkscape:randomized="0"
         d="m -247.48737,605.87474 -24.06235,1.27111 -13.13198,-20.20305 10.93036,-21.47416 24.06235,-1.27111 13.13198,20.20306 z" />
      <path
         style="fill:none;fill-rule:evenodd;stroke:#d1a031;stroke-width:1px;stroke-linecap:butt;stroke-linejoin:miter;stroke-opacity:1"
         d="m -284.86302,491.72754 c 0,-10.55491 0.42592,1.54536 -1.01015,-7.07107 -0.16607,-0.9964 0,-2.0203 0,-3.03045 0,-0.67344 -0.21296,-1.38143 0,-2.02031 0.15058,-0.45175 0.74601,-0.61394 1.01015,-1.01015 1.72076,-2.58113 0.11766,-1.85601 3.03046,-4.04061 0.60234,-0.45176 1.41797,-0.5584 2.0203,-1.01015 0.76191,-0.57143 1.16847,-1.59439 2.02031,-2.02031 2.02031,-1.01015 1.51523,0.50508 3.03046,0 0.71428,-0.23809 1.26738,-1.01015 2.0203,-1.01015 0.75293,0 1.41797,0.5584 2.02031,1.01015 1.66903,1.25177 2.29299,2.19695 3.03046,4.04061 0.39545,0.98864 0.46232,2.11741 1.01015,3.03046 0.48999,0.81666 1.49202,1.22788 2.0203,2.0203 0.18678,0.28017 0.33672,1.01016 0,1.01016 -0.33671,0 -0.15058,-0.70899 0,-1.01016 0.21296,-0.42591 0.85957,-0.55839 1.01016,-1.01015 1.19478,-3.58435 -1.63698,-0.5111 1.01015,-4.04061 0.57143,-0.7619 1.34687,-1.34687 2.0203,-2.0203 0.67344,-0.67344 1.20365,-1.53031 2.02031,-2.02031 0.91305,-0.54783 2.07808,-0.53396 3.03046,-1.01015 3.4904,-1.7452 2.25234,-2.3957 6.06091,-3.03046 0.99641,-0.16607 2.02031,0 3.03046,0 3.04889,0 3.93319,-0.245 7.07107,1.01015 0.44213,0.17686 0.72444,0.6292 1.01015,1.01016 0.69158,0.92211 2.56041,3.64063 3.03046,5.05076 0.19505,0.58515 0,3.16523 0,4.04061"
         id="path15089"
         inkscape:connector-curvature="0" />
    </g>
  </g>
  <g
     inkscape:groupmode="layer"
     id="cs_layer_1"
     inkscape:label="Countersheet  1">
    <g
       id="g15283"
       transform="translate(15.000000,15.000000)" />
    <g
       id="g15285"
       transform="translate(15.000000,15.000000)" />
    <g
       id="g15287"
       transform="translate(15.000000,15.000000)" />
    <g
       id="g15289"
       transform="translate(15.000000,15.000000)" />
    <g
       id="g15291"
       transform="translate(15.000000,15.000000)" />
    <g
       id="g15293"
       transform="translate(15.000000,15.000000)" />
    <g
       id="g15295"
       transform="translate(15.000000,15.000000)" />
    <g
       id="g15297"
       transform="translate(15.000000,15.000000)" />
    <g
       id="g15299"
       transform="translate(15.000000,15.000000)" />
    <g
       id="g15301"
       transform="translate(15.000000,15.000000)" />
    <g
       id="g15303"
       transform="translate(15.000000,15.000000)" />
  </g>
</svg>
