<?xml version="1.0" encoding="UTF-8" standalone="no"?>
<!-- Created with Inkscape (http://www.inkscape.org/) -->

<svg
   xmlns:dc="http://purl.org/dc/elements/1.1/"
   xmlns:cc="http://creativecommons.org/ns#"
   xmlns:rdf="http://www.w3.org/1999/02/22-rdf-syntax-ns#"
   xmlns:svg="http://www.w3.org/2000/svg"
   xmlns="http://www.w3.org/2000/svg"
   xmlns:xlink="http://www.w3.org/1999/xlink"
   xmlns:sodipodi="http://sodipodi.sourceforge.net/DTD/sodipodi-0.dtd"
   xmlns:inkscape="http://www.inkscape.org/namespaces/inkscape"
   sodipodi:docname="use.svg"
   inkscape:version="0.92.2 5c3e80d, 2017-08-06"
   version="1.1"
   id="svg3057"
   height="1122.5197"
   width="793.70081">
  <defs
     id="defs3059" />
  <sodipodi:namedview
     inkscape:window-maximized="0"
     inkscape:window-y="15"
     inkscape:window-x="14"
     inkscape:window-height="972"
     inkscape:window-width="1871"
     showgrid="false"
     inkscape:current-layer="layer1"
     inkscape:document-units="px"
     inkscape:cy="831.4344"
     inkscape:cx="-3.3400302"
     inkscape:zoom="0.35"
     inkscape:pageshadow="2"
     inkscape:pageopacity="0.0"
     borderopacity="1.0"
     bordercolor="#666666"
     pagecolor="#ffffff"
     id="base" />
  <metadata
     id="metadata3062">
    <rdf:RDF>
      <cc:Work
         rdf:about="">
        <dc:format>image/svg+xml</dc:format>
        <dc:type
           rdf:resource="http://purl.org/dc/dcmitype/StillImage" />
        <dc:title />
      </cc:Work>
    </rdf:RDF>
  </metadata>
  <g
     inkscape:label="Layer 1"
     inkscape:groupmode="layer"
     id="layer1">
    <circle
       style="fill:#0000ff;fill-opacity:1;stroke:#000000;stroke-width:2.13333344;stroke-linejoin:miter;stroke-miterlimit:4;stroke-dasharray:none;stroke-opacity:1"
       id="blue"
       inkscape:label="#path3078"
       cx="-166.47314"
       cy="311.70389"
       r="19.933678" />
    <circle
       style="fill:#16f416;fill-opacity:1;stroke:#000000;stroke-width:2.13333344;stroke-linejoin:miter;stroke-miterlimit:4;stroke-dasharray:none;stroke-opacity:1"
       id="green"
       inkscape:label="#path3876"
       cx="-128.76079"
       cy="404.36853"
       r="19.933678" />
    <rect
       style="color:#000000;clip-rule:nonzero;display:inline;overflow:visible;visibility:visible;opacity:1;isolation:auto;mix-blend-mode:normal;color-interpolation:sRGB;color-interpolation-filters:linearRGB;solid-color:#000000;solid-opacity:1;fill:none;fill-opacity:1;fill-rule:nonzero;stroke:#5dc568;stroke-width:10.24000072;stroke-linecap:butt;stroke-linejoin:miter;stroke-miterlimit:4;stroke-dasharray:none;stroke-dashoffset:0;stroke-opacity:0.50892861;marker:none;color-rendering:auto;image-rendering:auto;shape-rendering:auto;text-rendering:auto;enable-background:accumulate"
       id="white"
       width="28.014898"
       height="34.47987"
       x="-104.51711"
       y="295.00272" />
    <path
       style="fill:none;fill-rule:evenodd;stroke:#000000;stroke-width:1.06666672px;stroke-linecap:butt;stroke-linejoin:miter;stroke-opacity:1"
       d="m -212.74212,369.32875 c -0.73152,-1.17833 -1.37177,-2.42409 -2.19456,-3.53496 -0.18399,-0.24839 -0.51853,-0.3187 -0.77779,-0.47804 -0.25926,-0.15934 -0.48644,-0.55661 -0.77779,-0.47803 -0.29135,0.0786 -0.16693,0.73282 -0.45828,0.81141 -0.0793,0.0213 -3.82592,-0.30103 -4.02772,-0.28932 -0.4249,0.0246 -0.82404,0.22224 -1.23607,0.33336 -0.41203,0.11113 -0.85292,0.14011 -1.23606,0.33338 -0.6058,0.30556 -1.08858,0.83921 -1.69436,1.14478 -0.38313,0.19326 -0.87888,0.092 -1.23608,0.33336 -0.25257,0.17067 -0.23137,0.60523 -0.45827,0.81142 -1.01478,0.92215 -2.37396,1.36741 -3.38873,2.28956 -1.28909,1.17145 -0.87025,4.2447 -1.19415,5.82453 -0.68515,3.34186 -1.717,3.71439 -0.87465,7.11396 0.27153,1.09582 0.94452,2.03796 1.41679,3.05692 2.00255,4.32082 0.82701,2.10694 3.61135,6.59189 0.73152,1.17832 1.34881,2.443 2.19456,3.53496 0.54784,0.7073 3.38012,2.99765 3.75014,4.49102 0.0753,0.30392 -0.53359,0.50748 -0.45829,0.81141 0.0753,0.30392 0.70247,0.17411 0.77779,0.47803 0.007,0.0321 -2.11927,3.75222 -2.29143,4.05705 -1.2221,2.16375 -2.44419,4.32751 -3.66629,6.49126 -0.30552,0.54095 -0.49442,1.17533 -0.91657,1.62282 -0.3018,0.31991 -2.0885,0.98519 -2.15265,1.95618 -0.0293,0.44291 0.21299,0.85965 0.31951,1.28945 0.21299,0.85964 0.54466,1.69647 0.63898,2.57889 0.0746,0.69761 -0.30717,1.42125 -0.13878,2.10085 0.16839,0.6796 0.65533,1.23821 1.09728,1.76748 2.15148,2.57654 3.49232,3.57991 6.54178,5.11373 1.91663,0.96401 3.81075,2.12953 5.90277,2.53484 1.47929,0.28659 3.00118,-0.26841 4.48601,-0.52209 1.67988,-0.28702 3.29619,-0.889 4.94428,-1.3335 0.82404,-0.22226 1.70589,-0.28022 2.47214,-0.66675 1.2116,-0.61113 2.22845,-1.57827 3.38872,-2.28954 0.0641,-0.0394 9.23296,-5.23352 9.24957,-5.24589 1.00972,-0.75223 1.71164,-1.87582 2.61093,-2.76759 0.68972,-0.68397 1.54136,-1.19538 2.15263,-1.9562 0.57993,-0.72178 0.91659,-1.62281 1.37487,-2.43423 1.68714,-2.98712 3.14777,-5.92294 2.24951,-9.54819 -0.27151,-1.09581 -1.14526,-1.96109 -1.41678,-3.05692 -0.27152,-1.09582 -0.0269,-2.26989 -0.18071,-3.3903 -0.5065,-3.68834 -0.41422,-1.4938 -1.73627,-4.34635 -0.18524,-0.39969 -0.0882,-0.91683 -0.3195,-1.28945 -0.34614,-0.55752 -3.54281,-1.83266 -3.88893,-2.39019 -0.23133,-0.37259 -0.0882,-0.91682 -0.3195,-1.28942 -0.32716,-0.52697 -1.2936,-0.39084 -1.55556,-0.95608 -0.37048,-0.79935 -0.31161,-1.75933 -0.63901,-2.57889 -0.36576,-0.58915 -0.73152,-1.17831 -1.09728,-1.76747 -0.25925,-0.15936 -0.61422,-0.21457 -0.77778,-0.47804 -0.23133,-0.37261 -0.13426,-0.88978 -0.31951,-1.28943 -0.29288,-0.63196 -0.92889,-1.08789 -1.09728,-1.76749 -1.24691,-5.03235 0.42616,-0.32511 0.59707,-2.91226 0.0293,-0.4429 -0.4085,-0.85532 -0.3195,-1.28945 0.12588,-0.61396 0.79071,-1.00885 0.91658,-1.62281 0.0891,-0.43414 -0.34874,-0.84655 -0.3195,-1.28946 0.0207,-0.31316 0.43759,-0.49822 0.45829,-0.81139 0.0293,-0.4429 -0.21299,-0.85963 -0.3195,-1.28944 -0.10656,-0.42982 -0.0882,-0.91684 -0.31951,-1.28946 -0.16357,-0.26347 -0.70245,-0.1741 -0.77777,-0.47803 -0.0753,-0.30392 0.53359,-0.50748 0.45828,-0.8114 -0.045,-0.18185 -2.1268,-1.41926 -2.33335,-1.43411 -2.01317,-0.14461 -1.05286,1.89697 -2.93042,1.47815 -0.58854,-0.13127 -0.96704,-0.8248 -1.55558,-0.95607 -0.41616,-0.0929 -0.81117,0.3087 -1.23607,0.33338 -0.67183,0.039 -1.35586,0.002 -2.01385,-0.14467 -0.58853,-0.13127 -0.97289,-1.11323 -1.55557,-0.95607 -0.25612,0.0691 -1.72551,3.25337 -1.83314,3.24563 -1.23781,-0.089 -2.37963,-0.73381 -3.56944,-1.10072 z"
       id="path"
       inkscape:connector-curvature="0" />
    <g
       id="g1149">
      <rect
         inkscape:label="#rect3076"
         y="101.56728"
         x="-228.57144"
         height="112.76191"
         width="112.76191"
         id="red"
         style="fill:#f72a02;fill-opacity:1;stroke:#000000;stroke-width:2.13333344;stroke-linejoin:miter;stroke-miterlimit:4;stroke-dasharray:none;stroke-opacity:1" />
      <use
         height="1052.3622"
         width="744.09448"
         transform="translate(-5.3874803,-150.84945)"
         id="use3891"
         xlink:href="#blue"
         y="0"
         x="0" />
      <use
         style="stroke-width:1.47601044"
         x="0"
         y="0"
         xlink:href="#blue"
         id="use829"
         transform="matrix(0.67750199,0,0,0.67750199,-95.860452,-87.825565)"
         width="744.09448"
         height="1052.3622" />
    </g>
  </g>
</svg>
