<?xml version="1.0" encoding="UTF-8" standalone="no"?>
<!-- Created with Inkscape (http://www.inkscape.org/) -->

<svg
   xmlns:dc="http://purl.org/dc/elements/1.1/"
   xmlns:cc="http://creativecommons.org/ns#"
   xmlns:rdf="http://www.w3.org/1999/02/22-rdf-syntax-ns#"
   xmlns:svg="http://www.w3.org/2000/svg"
   xmlns="http://www.w3.org/2000/svg"
   xmlns:sodipodi="http://sodipodi.sourceforge.net/DTD/sodipodi-0.dtd"
   xmlns:inkscape="http://www.inkscape.org/namespaces/inkscape"
   viewBox="0 0 744.09448 1052.3622"
   version="1.1"
   inkscape:output_extension="org.inkscape.output.svg.inkscape"
   sodipodi:docname="faces_multiselect.svg"
   inkscape:version="0.92.1 r15371"
   sodipodi:version="0.32"
   id="svg2"
   height="1122.5197"
   width="793.70081">
  <defs
     id="defs4">
    <inkscape:perspective
       sodipodi:type="inkscape:persp3d"
       inkscape:vp_x="0 : 526.1811 : 1"
       inkscape:vp_y="0 : 1000 : 0"
       inkscape:vp_z="744.09445 : 526.1811 : 1"
       inkscape:persp3d-origin="372.04723 : 350.7874 : 1"
       id="perspective10" />
  </defs>
  <sodipodi:namedview
     inkscape:window-maximized="1"
     inkscape:window-y="0"
     inkscape:window-x="0"
     inkscape:window-height="720"
     inkscape:window-width="1366"
     showgrid="false"
     inkscape:current-layer="svg2"
     inkscape:document-units="px"
     inkscape:cy="930.89546"
     inkscape:cx="244.75808"
     inkscape:zoom="0.9899495"
     inkscape:pageshadow="2"
     inkscape:pageopacity="0.0"
     objecttolerance="10"
     guidetolerance="10"
     gridtolerance="10000"
     borderopacity="1.0"
     bordercolor="#666666"
     pagecolor="#ffffff"
     id="base" />
  <metadata
     id="metadata7">
    <rdf:RDF>
      <cc:Work
         rdf:about="">
        <dc:format>image/svg+xml</dc:format>
        <dc:type
           rdf:resource="http://purl.org/dc/dcmitype/StillImage" />
      </cc:Work>
    </rdf:RDF>
  </metadata>
  <g
     inkscape:label="Layer 1"
     inkscape:groupmode="layer"
     id="layer1">
    <g
       id="g3200">
      <rect
         inkscape:label="#rect2385"
         y="-135.57721"
         x="-48.487324"
         height="80.812202"
         width="80.812202"
         id="face"
         style="display:inline;overflow:visible;visibility:visible;opacity:1;fill:#ffffff;fill-opacity:1;fill-rule:evenodd;stroke:#ffffff;stroke-width:1;stroke-linecap:butt;stroke-linejoin:miter;stroke-miterlimit:4;stroke-dasharray:none;stroke-dashoffset:0;stroke-opacity:1;marker:none;marker-start:none;marker-mid:none;marker-end:none;enable-background:accumulate" />
      <circle
         transform="matrix(0.875,0,0,0.85,-206.07112,-290.75442)"
         id="path2383"
         style="display:inline;overflow:visible;visibility:visible;opacity:1;fill:#f2dae4;fill-opacity:1;fill-rule:evenodd;stroke:#94999f;stroke-width:1.15954208;stroke-linecap:butt;stroke-linejoin:miter;stroke-miterlimit:4;stroke-dasharray:none;stroke-dashoffset:0;stroke-opacity:1;marker:none;marker-start:none;marker-mid:none;marker-end:none;enable-background:accumulate"
         cx="226.27417"
         cy="230.09801"
         r="40.406101" />
      <ellipse
         transform="translate(2.0203051,-2.0203051)"
         id="path3157"
         style="display:inline;overflow:visible;visibility:visible;opacity:1;fill:#ffffff;fill-opacity:1;fill-rule:evenodd;stroke:#94999f;stroke-width:1;stroke-linecap:butt;stroke-linejoin:miter;stroke-miterlimit:4;stroke-dasharray:none;stroke-dashoffset:0;stroke-opacity:1;marker:none;marker-start:none;marker-mid:none;marker-end:none;enable-background:accumulate"
         cx="-24.243662"
         cy="-101.23203"
         rx="4.0406103"
         ry="8.0812206" />
      <ellipse
         transform="translate(28.284272,-3.030449)"
         id="path3159"
         style="display:inline;overflow:visible;visibility:visible;opacity:1;fill:#ffffff;fill-opacity:1;fill-rule:evenodd;stroke:#94999f;stroke-width:1;stroke-linecap:butt;stroke-linejoin:miter;stroke-miterlimit:4;stroke-dasharray:none;stroke-dashoffset:0;stroke-opacity:1;marker:none;marker-start:none;marker-mid:none;marker-end:none;enable-background:accumulate"
         cx="-24.243662"
         cy="-101.23203"
         rx="4.0406103"
         ry="8.0812206" />
      <path
         inkscape:label="#path3169"
         sodipodi:nodetypes="cc"
         id="mouth-happy"
         d="m -23.233507,-85.069588 c 0.444808,15.453068 29.4281614,17.597463 29.2947387,0"
         style="display:inline;overflow:visible;visibility:visible;opacity:1;fill:none;fill-opacity:1;fill-rule:nonzero;stroke:#ff0000;stroke-width:1;stroke-linecap:butt;stroke-linejoin:miter;stroke-miterlimit:4;stroke-dasharray:none;stroke-dashoffset:0;stroke-opacity:1;marker:none;marker-start:none;marker-mid:none;marker-end:none;enable-background:accumulate"
         inkscape:connector-curvature="0" />
      <path
         inkscape:label="#path3171"
         sodipodi:nodetypes="cc"
         id="mouth-sad"
         d="m -23.233507,-72.662622 c 0.444808,-15.453068 29.4281614,-17.597463 29.2947387,0"
         style="display:inline;overflow:visible;visibility:visible;opacity:1;fill:none;fill-opacity:1;fill-rule:nonzero;stroke:#ff0000;stroke-width:1;stroke-linecap:butt;stroke-linejoin:miter;stroke-miterlimit:4;stroke-dasharray:none;stroke-dashoffset:0;stroke-opacity:1;marker:none;marker-start:none;marker-mid:none;marker-end:none;enable-background:accumulate"
         inkscape:connector-curvature="0" />
      <path
         inkscape:label="#path3173"
         id="add-moustache"
         d="m -8.3337585,-89.615271 c -0.8042668,0.104789 -2.4498235,-0.467297 -3.5355335,-1.010153 -1.187942,-0.59397 -2.474611,-1.010152 -4.040611,-1.010152 -1.060262,0 -2.412609,-0.252538 -3.788072,-0.252538 -1.674934,0 -2.198691,0.683462 -3.030457,1.515228 -1.32033,1.32033 -1.904496,1.276638 -3.030458,2.77792 -0.91671,1.22228 -0.889038,2.535691 -1.515229,3.788072 -0.569404,1.138808 -1.031383,2.041536 -1.767767,2.77792 -0.996434,0.996434 -1.1139,1.567102 -2.525381,2.272843 -1.206696,0.603348 -1.550207,2.700271 -1.767767,3.788072 -0.324754,1.623769 0.856701,1.767767 2.272843,1.767767 1.216132,0 2.36377,-1.078348 3.282996,-1.767767 0.985255,-0.738942 1.753899,-2.254353 2.525381,-3.282996 1.282623,-1.710163 1.798274,-2.902774 3.030458,-4.545686 1.203554,-1.604739 2.370905,-2.118367 3.535534,-3.282996 1.026408,-1.026408 2.269623,-1.198751 3.535534,-1.515229 1.200041,-0.30001 2.475838,-0.252538 3.788072,-0.252538 1.452887,0 2.2497256,0.252538 3.5355338,0.252538 1.2626906,0 2.5253813,0 3.788072,0 1.0897145,0 2.3628585,-0.211907 3.53553393,-0.505076 1.27334367,-0.318336 2.65691217,-0.252538 4.04061017,-0.252538 1.4414912,0 2.8318785,0.279517 3.7880721,0.757614 1.263081,0.63154 1.4380508,1.350371 2.777919,2.020305 0.571723,0.285861 1.304751,1.851886 1.515229,2.272843 0.605019,1.210038 1.257063,2.00905 1.767767,3.030458 0.549906,1.099811 1.745,1.515229 3.030458,1.515229 0.447724,0 1.38748,-3.280036 1.515229,-3.535534 0.870791,-1.741583 -0.62119,-3.71986 -1.767767,-4.293148 -0.776407,-0.388204 -1.621765,-1.741456 -2.020305,-2.272844 -0.448341,-0.597787 -2.0851,-1.673895 -2.77792,-2.020305 -1.4112301,-0.705615 -1.7208714,-1.124698 -3.2829956,-1.515229 -1.2298885,-0.307472 -2.3457903,-0.252538 -3.7880721,-0.252538 -1.34687,0 -2.6937401,0 -4.04061016,0 -1.63089004,0 -2.40348664,0.15893 -3.78807204,0.505077 -1.1852338,0.296308 -2.5991315,1.299565 -3.5355339,1.767766 -0.439026,0.219513 -0.8417938,0.505077 -1.2626907,0.757615 z"
         style="fill:#f7a800;fill-opacity:1;fill-rule:evenodd;stroke:#907a39;stroke-width:1px;stroke-linecap:butt;stroke-linejoin:miter;stroke-opacity:1"
         inkscape:connector-curvature="0" />
      <path
         inkscape:label="#path3175"
         id="add-beard"
         d="m -26.263966,-71.685063 c -0.600374,0.300187 1.928125,2.685739 2.272843,3.030457 1.176647,1.176647 1.652152,1.90469 2.525381,2.77792 0.788035,0.788034 1.06711,1.376605 1.515229,2.272843 0.462428,0.924855 1.557509,1.599788 2.020305,2.525381 0.525367,1.050734 0.947343,1.769067 1.262691,3.030458 0.347185,1.388742 1.871737,1.79376 2.777919,2.020305 1.170651,0.292663 2.088439,0.505076 3.282996,0.505076 1.5321317,0 2.7971714,-0.458419 4.2931486,-0.757614 1.3507737,-0.270155 2.6445628,-0.252538 4.0406102,-0.252538 2.36619513,0 2.88426664,-0.450255 5.0507627,-1.262691 0.7194161,-0.269781 0.9019354,-2.597589 1.0101525,-3.030458 0.3494362,-1.397744 0.2806541,-2.076536 0.7576145,-3.030457 0.4259538,-0.851908 1.4895116,-1.817657 2.0203051,-2.525382 0.8059806,-1.07464 1.3926304,-1.897706 2.2728432,-2.777919 0.7808256,-0.780826 1.5760422,-1.545636 2.5253812,-2.020305 1.211886,-0.605943 1.660431,-0.650278 2.525382,-1.515229 0.826503,-0.826503 0.504865,-2.273686 0.252538,-3.282996 -0.238048,-0.952189 -2.090263,-1.676476 -2.77792,-2.020305 -1.244815,-0.622408 -2.8447504,0.824446 -3.2829956,1.262691 -0.4165878,0.416588 -0.75972,3.161991 -1.0101526,3.788072 -0.3231126,0.807782 -3.2754497,0.882626 -4.0406102,1.010152 -1.8382017,0.306367 -3.50137299,0.144691 -5.3033008,0.505077 -1.7392801,0.347856 -3.3913327,0.847833 -5.0507628,1.26269 -1.5525135,0.388129 -3.186565,0.252539 -4.798225,0.252539 -1.26269,0 -2.525381,0 -3.788072,0 -1.506198,0 -2.837069,-0.45673 -4.04061,-0.757615 -1.428913,-0.357228 -2.126788,-0.305779 -3.030457,-0.757614 -1.553362,-0.776681 -1.229559,-0.663226 -3.282996,-0.252538 z"
         style="fill:#f7a800;fill-opacity:1;fill-rule:evenodd;stroke:#907a39;stroke-width:1px;stroke-linecap:butt;stroke-linejoin:miter;stroke-opacity:1"
         inkscape:connector-curvature="0" />
      <path
         inkscape:label="#path3177"
         sodipodi:nodetypes="cssscsssssssssssssssssssssssc"
         id="add-hair"
         d="m 22.728432,-111.33355 c 0.526121,3.32509 -3.684133,-3.39118 -9.630909,-2.90296 -5.946775,0.48822 -26.00444,-6.97136 -33.939632,-6.39559 -7.935191,0.57578 -3.242834,7.41913 -9.187039,7.72387 -5.944204,0.30474 -10.655678,5.94016 -10.629492,5.61529 0.104745,-1.29948 -1.262691,-3.2442 -1.262691,-5.3033 0,-2.05282 0.568461,-1.92573 2.272844,-2.77792 1.447149,-0.72358 1.983468,-0.35705 2.020305,-1.51523 0.08326,-2.61764 1.483404,-1.85264 2.020305,-2.27284 1.805674,-1.41321 2.041143,-4.29315 3.788071,-4.29315 2.703631,0 2.525382,1.16449 2.525382,-2.02031 0,-3.0036 5.00487,-1.88256 7.576144,-2.52538 0.673435,-0.16836 1.34687,-0.33672 2.020305,-0.50507 2.264516,-0.56613 3.326602,-3.23939 4.545687,-2.0203 0.319133,0.31913 2.984417,1.42348 3.535534,1.01014 1.395298,-1.04647 2.3302535,-3.42071 3.0304573,-2.0203 0.7974355,1.59487 1.291142,1.37473 3.535534,0.25253 2.6390112,-1.3195 2.3170198,2.02031 5.30330084,2.02031 1.61235436,0 4.21636846,0.8236 4.54568646,1.26269 0.814411,1.08588 0.8062528,0.10195 2.0203051,-0.50507 1.6796164,-0.83981 3.6610143,0.63055 4.5456863,1.51522 0.665497,0.6655 0.505076,1.83677 0.505076,2.77792 0,1.51757 3.073432,-0.6206 4.545687,-0.25253 1.433849,0.35846 1.262691,2.79475 1.262691,4.04061 0,1.46076 1.512361,1.19884 2.777919,1.51523 1.501322,0.37533 2.140767,1.23946 2.525381,2.77791 0.09708,0.38834 0.529249,0.70567 1.515229,2.02031 0.586061,0.78141 -1.577626,1.94083 -2.020305,2.27284 -0.150584,0.11294 0.168359,0.33672 0.252538,0.50508 z"
         style="color:#000000;display:inline;overflow:visible;visibility:visible;opacity:1;fill:#f7a800;fill-opacity:1;fill-rule:evenodd;stroke:#907a39;stroke-width:1px;stroke-linecap:butt;stroke-linejoin:miter;stroke-miterlimit:4;stroke-dasharray:none;stroke-dashoffset:0;stroke-opacity:1;marker:none;marker-start:none;marker-mid:none;marker-end:none;enable-background:accumulate"
         inkscape:connector-curvature="0" />
      <g
         inkscape:label="#g3193"
         id="add-glasses">
        <circle
           style="display:inline;overflow:visible;visibility:visible;opacity:1;fill:#e0ddc1;fill-opacity:1;fill-rule:evenodd;stroke:#407c86;stroke-width:1px;stroke-linecap:butt;stroke-linejoin:miter;stroke-miterlimit:4;stroke-dasharray:none;stroke-dashoffset:0;stroke-opacity:1;marker:none;marker-start:none;marker-mid:none;marker-end:none;enable-background:accumulate"
           id="path3183"
           transform="translate(-2.0203051,-1.0101525)"
           cx="-19.445436"
           cy="-102.99979"
           r="8.3337584" />
        <circle
           style="display:inline;overflow:visible;visibility:visible;opacity:1;fill:#e0ddc1;fill-opacity:1;fill-rule:evenodd;stroke:#407c86;stroke-width:1px;stroke-linecap:butt;stroke-linejoin:miter;stroke-miterlimit:4;stroke-dasharray:none;stroke-dashoffset:0;stroke-opacity:1;marker:none;marker-start:none;marker-mid:none;marker-end:none;enable-background:accumulate"
           id="path3185"
           transform="translate(24.4962,-1.7677723)"
           cx="-19.445436"
           cy="-102.99979"
           r="8.3337584" />
        <path
           style="fill:none;fill-rule:evenodd;stroke:#000000;stroke-width:1px;stroke-linecap:butt;stroke-linejoin:miter;stroke-opacity:1"
           d="m -42.931483,-98.201567 12.626907,-5.050763"
           id="path3187"
           inkscape:connector-curvature="0" />
        <path
           style="fill:none;fill-rule:evenodd;stroke:#000000;stroke-width:1px;stroke-linecap:butt;stroke-linejoin:miter;stroke-opacity:1"
           d="m -13.131983,-105.77771 9.5964491,-0.50508"
           id="path3189"
           inkscape:connector-curvature="0" />
        <path
           style="fill:none;fill-rule:evenodd;stroke:#000000;stroke-width:1px;stroke-linecap:butt;stroke-linejoin:miter;stroke-opacity:1"
           d="m 14.142136,-104.76756 12.626906,4.04061"
           id="path3191"
           inkscape:connector-curvature="0" />
      </g>
    </g>
  </g>
  <path
     style="fill:none;stroke:#f7a800;stroke-width:1.77165358;stroke-linecap:butt;stroke-linejoin:miter;stroke-opacity:1;stroke-miterlimit:4;stroke-dasharray:5.31496075,1.77165358;stroke-dashoffset:0"
     d="M -234.375,66.647895 V -27.102104"
     id="cs_regstyle"
     inkscape:connector-curvature="0"
     inkscape:label="#path8377" />
</svg>
